/* XPM */
static char *_1a5188860b54edc9b5f68cefcc2eef1WNXH8pCVyizDw3Hr[] = {
/* columns rows colors chars-per-pixel */
"20 33 22 1 ",
"  c #0B0B0B",
". c #0E0E0E",
"X c #050A54",
"o c gray39",
"O c #930D16",
"+ c #9E1018",
"@ c #823D1B",
"# c #F7292F",
"$ c #8B461E",
"% c #0A811D",
"& c #F2C438",
"* c #F4954A",
"= c #F69D52",
"- c #102689",
"; c #1E43DF",
": c #1E43E1",
"> c #8C8C8D",
", c #A5A5A5",
"< c #F5F48C",
"1 c #F7F493",
"2 c #F6F6F6",
"3 c white",
/* pixels */
"3--333----333--33333",
"3-;-3-;;;;;--<-33333",
"3-<*-;;;;;;;;*-33333",
"3-*;;;;;;;;;---33333",
"3-;---;;;;;--;X33333",
"3XX22--;;;-22XX33333",
"3X-%22--;-%22XX33333",
"3XX 222--- 22XX33333",
"3XX%222222%22-X33333",
"XX-;22*@ *22;-X33333",
"XX-;;*<<<<***;;X3333",
"X--;*<<<<<*** ;X3333",
"X-;-*<<<<<O*@ ;X3333",
"X-;- @*****@ -;X3333",
"X-;X--  @@ X---X3333",
"X--$$$1-=$$ ---X3333",
"X-$=11$:1=.3 --X3333",
"X$=$$$X:11..3 -X3333",
" $$11$.::=..33 X3333",
"3..$=$>.:X.$.33 3333",
".>..$>2.::-X.3333333",
".o>>22.::X-X,.333333",
"3......:-3.-X,.33333",
"333333X:X33.-Xo.3333",
"33333X:X33..X.,.3333",
"3333.2..o3.,,,.33333",
"333.o222.3.o,.333333",
"33.++oo.33.++,,++333",
"3.+,222.3.+#,,###++3",
"3.&,###+..++,,#####+",
"3.&+####..oooo,,,,,o",
"3..,222,.3..........",
"33......333333333333"
};
