/* XPM */
static char *_45713d69e204fa9de45372613c50b02UU3Wjdh9uPztNYk7[] = {
/* columns rows colors chars-per-pixel */
"29 34 22 1 ",
"  c #111111",
". c #161616",
"X c #050A54",
"o c #070D5E",
"O c #6F6F6F",
"+ c #A51119",
"@ c #F62D33",
"# c #8C471F",
"$ c #955123",
"% c #0B8A1F",
"& c #F6CB39",
"* c #F59D52",
"= c #F6A65B",
"- c #102689",
"; c #132C93",
": c #1E43DF",
"> c #1E4BE2",
", c #AEAEAE",
"< c #F6F590",
"1 c #F7F699",
"2 c #F9F9F9",
"3 c white",
/* pixels */
"33333333333333X33333333333333",
"3333333333333X:X3-33333333333",
"333333333333X-:XXX33333333333",
"3333333-----X-*-XX33333333333",
"33333--:::::-:<-:--3333333333",
"3333-::::::::::::::-333333333",
"333X:::::::::::::-::-33333333",
"33X:::::---:::-:::X:X33333333",
"3X-::-XX-:::::-22% -X33333333",
"3X--  X-:::::::-22%2X  333333",
"X-  3 -:::::::::-22*  3333333",
"X 333X::::::-:::##*<<#3333333",
" 333X-:::::-:::*<<<<* 3333333",
"3333X::::-X::::<<*#*#33333333",
"333X-:::- -::::****#333333333",
"333X-::X X-:----X  3333333333",
"333X-:X X----X  1$33333333333",
"333X-X 3X---X ;.1=.3333333333",
"333X- 33X--X ;o>.1$3333333333",
"3333X 33X-X o..>.=1$333333333",
"3333 333XX $.3.;>.11$.3333333",
"3333 333X ,..33o>..=.2..OO333",
"33333333  O,.oo>;.o.2O2222O33",
"3333333. .,O.3;>.oo3.2222,.33",
"333333., +...o>;3o;o.,222O.+.",
"333333.2@@,2.>;o33o;o.,2O.@,.",
"33333.2&@@,2.oo333.;,....@@,.",
"33333.2+&@.,.3333.O,,.O,@@,.3",
"33333.2+&,..33333.,,O+,,@,O.3",
"33333.2&O.33333333.+++,,,O.33",
"33333.2@@+33333333.+++,,O.333",
"33333.2@@@+3333333.,,,O..3333",
"33333.,222O.333333.....333333",
"333333......33333333333333333"
};
