/* XPM */
static char *_c1e02da08f84536ba56eb1869f6878b5fNBf9MHEuVsYbwm[] = {
/* columns rows colors chars-per-pixel */
"26 36 22 1 ",
"  c #111111",
". c #161616",
"X c #050A54",
"o c #070D5E",
"O c #6F6F6F",
"+ c #A51119",
"@ c #F62D33",
"# c #8C471F",
"$ c #955123",
"% c #0B8A1F",
"& c #F6CB39",
"* c #F59D52",
"= c #F6A65B",
"- c #102689",
"; c #132C93",
": c #1E43DF",
"> c #1E4BE2",
", c #AEAEAE",
"< c #F6F590",
"1 c #F7F699",
"2 c #F9F9F9",
"3 c white",
/* pixels */
"33333333333333X33333333333",
"3333333333333X:X3-33333333",
"333333333333X-:XXX33333333",
"3333333-----X-*-XX33333333",
"33333--:::::-:<-:--3333333",
"3333-::::::::::::::-333333",
"333X:::::::::::::-::-33333",
"33X:::::---:::-:::X:X33333",
"3X-::-XX-:::::-22% -X33333",
"3X--  X-:::::::-22%2X  333",
"X-  3 -:::::::::-22*  3333",
"X 333X::::::-:::##*<<#3333",
" 333X-:::::-:::*<<<<* 3333",
"3333X::::-X::::<<*#*#33333",
"333X-:::- -::::****#333333",
"333X-::X X-:----X  3333333",
"333X-:X X----X  .333333333",
"333X-X 3X---X =$$333333333",
"333X- 33X--X .1$=.33333333",
"3333X 33X-X ;.=1$.33333333",
"3333 333XX o...1$.33333333",
"3333 333X 3.$..=1.33333333",
"33333333  .$..o.1$.3333333",
"33333333 .,,.o>..,2.O33333",
"33333333 .O.o;>..2,2,O3333",
"33333333.,,o;>.o.O2222O333",
"33333333...;>o3..,222,.333",
"333333...,2;o3....22O.3333",
"33333.,@@,2..3.,,....33333",
"33333.2@@O,2.3.O,O,O+++++.",
"33333.2&&@..3.++++,,@@@@,.",
"333333.2+&,+3.++++,,@,,,.3",
"333333.,+&@@+.O,,,,,,O..33",
"3333333.2@@@@@.......33333",
"33333333.2222,.33333333333",
"333333333......33333333333"
};
