/* XPM */
static char *back1719238405[] = {
/* columns rows colors chars-per-pixel */
"32 32 168 2 ",
"   c None",
".  c #000000",
"X  c #0A0603",
"o  c #0D0904",
"O  c #0F0D0B",
"+  c #160E07",
"@  c #1D1005",
"#  c #10100F",
"$  c #1B120A",
"%  c #101010",
"&  c #201206",
"*  c #23160C",
"=  c #27180D",
"-  c #2C1B0C",
";  c #331D0A",
":  c #291E12",
">  c #301E11",
",  c #3B220D",
"<  c #2B2115",
"1  c #372213",
"2  c #3B2414",
"3  c #332518",
"4  c #3E2D1B",
"5  c #393939",
"6  c #45280D",
"7  c #522F0F",
"8  c #422A14",
"9  c #4A2D14",
"0  c #402A19",
"q  c #492D19",
"w  c #4F311B",
"e  c #45321F",
"r  c #513013",
"t  c #583312",
"y  c #53331B",
"u  c #5A371E",
"i  c #5C391F",
"p  c #633915",
"a  c #623F1E",
"s  c #453422",
"d  c #4A3420",
"f  c #543D26",
"g  c #5F3C21",
"h  c #663E23",
"j  c #63401E",
"k  c #6A4019",
"l  c #774A1F",
"z  c #7F4B1C",
"x  c #53412E",
"c  c #4A433D",
"v  c #6A4124",
"b  c #6F4729",
"n  c #6D482A",
"m  c #734724",
"M  c #764A26",
"N  c #724728",
"B  c #774928",
"V  c #7D4F2C",
"C  c #7B4F25",
"Z  c #7D5126",
"A  c #664D32",
"S  c #6A5035",
"D  c #745231",
"F  c #735839",
"G  c #7C5A38",
"H  c #505050",
"J  c #5D5D5D",
"K  c #7A6855",
"L  c #6C6C6C",
"P  c #756C61",
"I  c gray44",
"U  c #854D1E",
"Y  c #804E29",
"T  c #865221",
"R  c #84532C",
"E  c #8E572E",
"W  c #8D5B2C",
"Q  c #8D5323",
"!  c #955A25",
"~  c #9E5F26",
"^  c #935D2F",
"/  c #9C5E2C",
"(  c #8B5731",
")  c #875933",
"_  c #8E5C37",
"`  c #845C38",
"'  c #905A30",
"]  c #97612F",
"[  c #9A642F",
"{  c #9A643A",
"}  c #926335",
"|  c #AC6B2F",
" . c #A26436",
".. c #A46933",
"X. c #AB6A36",
"o. c #A6683A",
"O. c #AE6C39",
"+. c #B06C3B",
"@. c #AF7037",
"#. c #AF763F",
"$. c #B57537",
"%. c #BB7634",
"&. c #B6713C",
"*. c #BC753F",
"=. c #B77B3E",
"-. c #BD7A3A",
";. c #C57E3D",
":. c #8D6B45",
">. c #816444",
",. c #946F46",
"<. c #986E45",
"1. c #AD7544",
"2. c #AC7C4A",
"3. c #BE7642",
"4. c #BF7B4B",
"5. c #917C6A",
"6. c #C57B41",
"7. c #C17D48",
"8. c #CA7D43",
"9. c #C6803D",
"0. c #CE843D",
"q. c #BB814B",
"w. c #BA8751",
"e. c #B28858",
"r. c #BB8A56",
"t. c #A48A6D",
"y. c #CD8244",
"u. c #CA824A",
"i. c #CE884E",
"p. c #D38744",
"a. c #D58A42",
"s. c #DA8C43",
"d. c #D98F4D",
"f. c #D48B4D",
"g. c #DE934A",
"h. c #CA8D54",
"j. c #C38C54",
"k. c #D08E58",
"l. c #CE935B",
"z. c #D59155",
"x. c #DB9352",
"c. c #D69359",
"v. c #DB9759",
"b. c #DE9D5E",
"n. c #D3995E",
"m. c #E09347",
"M. c #E1964C",
"N. c #E29B53",
"B. c #E39F59",
"V. c #E4A25E",
"C. c #C39360",
"Z. c #D39660",
"A. c #D29D65",
"S. c #DA9B61",
"D. c #DEA166",
"F. c #D9A369",
"G. c #DFA96F",
"H. c #E4A564",
"J. c #E5A867",
"K. c #E2A76B",
"L. c #E5AB6C",
"P. c #E6AE70",
"I. c #E7B073",
"U. c #A39387",
"Y. c #BAA492",
"T. c #AFAEAD",
"R. c #DFC8B8",
"E. c #EFEFEF",
/* pixels */
"              . . .                     . . .                   ",
"              . $ y 1                 $ w > .                   ",
"              . 4 3.g X     o o o   o > o.N .                   ",
"              . s l.1.M * y [ [ M o u { c.G .                   ",
"              . 4 q.i.&.u E N.N.=.q W y.h.D .                   ",
"              . - U %.a.;.k.P.I.S.3.y.0.! 9 .                   ",
"            X , a | 0.m.c.D.I.I.K.S.x.s.%.T 6 &                 ",
"            X t | g.M.B.L.P.I.I.I.I.V.M.M.-.T - .               ",
"            o V u.K.L.L.I.I.I.I.I.I.L.L.L.z.O.2 .               ",
"          2 g O.x.L.I.I.I.I.I.I.I.I.I.I.I.b.0.V q               ",
"        . y 3.a.N.P.I.I.I.I.I.I.I.I.I.I.I.V.s.8.R o             ",
"          - q  .z.L.I.I.I.I.I.I.I.I.I.I.P.b.6.v 1               ",
"            o h { j.n.D.P.I.I.I.I.I.K.S.l.1.V 1                 ",
"              o ; U X.i.K.I.I.I.I.I.c.3.! r o                   ",
"            .   @ , 9 n q.c.c.k.c.z.} y , -   .                 ",
"            .     < : 9 O.3. . .+.8.b : < :   . .               ",
"              . s e.q.-.a.E * * i 0.9.=.r.F .                   ",
"              q ` F.2.E ;...a h R p...} A.2.y >                 ",
"            o _ l.F.A > o.p.m.m.s.u.h 3 e.Z.3.2 .               ",
"            % U.Y.x n { l.H.H.H.D.D.1.V f 5.R.H .               ",
"            % T.T.% N f.J.K.D.P.I.I.v.X.= I E.H .               ",
"            % T.T.% V M.L.b.8.H.I.I.B.$.- I E.H .               ",
"              J K >.w.H.P.h.[ D :.G.J.n.,.K I 5                 ",
"              . s A.L.L.P.2.p , f e.A.F.j.S .                   ",
"              . 4 7.d.B.L.:.& M V 3 ( 1.d $ .                   ",
"              . * v @.m.B.#.j v h u h i + . . .                 ",
"            . . . . T 0.0.0.9.8 2 &.i X o o o o O #             ",
"            . . . . u ~ ..z 8 @ ; Q ^ ( ] ' ( <.t.T.J . .       ",
"            . . . . ; t t ; . . @ r m E ] ^ ( <.t.T.J . .       ",
"              . . . . X X . . . . X X o o o o o O #             ",
"                    . . . . . . . . . . .                       ",
"                    . . . . . . . . . .                         "
};
