/* XPM */
static char *back_1_1719495763[] = {
/* columns rows colors chars-per-pixel */
"32 32 185 2 ",
"   c #000000",
".  c #0A0602",
"X  c #0D0904",
"o  c #0D0C0A",
"O  c #160E07",
"+  c #10100F",
"@  c #1A120B",
"#  c #1C1005",
"$  c #0E0E10",
"%  c #101010",
"&  c #191512",
"*  c #18181A",
"=  c #24160C",
"-  c #2B1B0C",
";  c #27180D",
":  c #321D0A",
">  c #2B1E11",
",  c #301E11",
"<  c #3C230F",
"1  c #2B2014",
"2  c #3D2614",
"3  c #332518",
"4  c #3E2D1B",
"5  c #2A2A2E",
"6  c #342D28",
"7  c #36363B",
"8  c #522F0F",
"9  c #4A2D14",
"0  c #402A19",
"q  c #492D19",
"w  c #422A14",
"e  c #45321F",
"r  c #583312",
"t  c #5C391F",
"y  c #54331A",
"u  c #633915",
"i  c #623F1E",
"p  c #483421",
"a  c #5D3B22",
"s  c #533D28",
"d  c #663E23",
"f  c #67401C",
"g  c #7F4B1C",
"h  c #774A1F",
"j  c #53412E",
"k  c #4A433D",
"l  c #5C4739",
"z  c #6B4224",
"x  c #6E482A",
"c  c #734724",
"v  c #764927",
"b  c #7D4F2C",
"n  c #774B27",
"m  c #7D5126",
"M  c #6A4E37",
"N  c #6A5035",
"B  c #745231",
"V  c #7A5437",
"C  c #49484E",
"Z  c #44444A",
"A  c #5B4C45",
"S  c #554A49",
"D  c #505050",
"F  c #5C5250",
"G  c #654E41",
"H  c #6C5441",
"J  c #6F605C",
"K  c #7B664F",
"L  c #585860",
"P  c #65646C",
"I  c #6B6465",
"U  c #756B67",
"Y  c #6A6A74",
"T  c #707070",
"R  c #757579",
"E  c #7A7478",
"W  c #854D1E",
"Q  c #804E29",
"!  c #8E572E",
"~  c #8A5628",
"^  c #955A25",
"/  c #9E5F26",
"(  c #935D2F",
")  c #9C5E2C",
"_  c #855431",
"`  c #8B5731",
"'  c #875933",
"]  c #8E5C37",
"[  c #825C39",
"{  c #905A30",
"}  c #97612F",
"|  c #9A642F",
" . c #9A643A",
".. c #926335",
"X. c #AC6B2F",
"o. c #A26436",
"O. c #A46933",
"+. c #A6683A",
"@. c #AE6C39",
"#. c #AB6A36",
"$. c #B06C3B",
"%. c #AF733B",
"&. c #BB7634",
"*. c #B6713C",
"=. c #BC753F",
"-. c #BD7A3A",
";. c #B6783B",
":. c #C57E3D",
">. c #8D6B45",
",. c #816444",
"<. c #986E45",
"1. c #946F46",
"2. c #AD7544",
"3. c #AC7C4A",
"4. c #BE7642",
"5. c #BF7B4B",
"6. c #917C6A",
"7. c #C57B41",
"8. c #C67D46",
"9. c #CB823D",
"0. c #BB814B",
"q. c #BA8751",
"w. c #B28859",
"e. c #BB8A56",
"r. c #A48A6D",
"t. c #CD8244",
"y. c #CA824A",
"u. c #CE884E",
"i. c #D38744",
"p. c #D58A42",
"a. c #DA8C43",
"s. c #D78D4D",
"d. c #DE934A",
"f. c #CA8D54",
"g. c #C38C54",
"h. c #D08E58",
"j. c #CE935B",
"k. c #D59155",
"l. c #DB9352",
"z. c #D69359",
"x. c #DB9759",
"c. c #DE9D5E",
"v. c #D3995E",
"b. c #E09347",
"n. c #E1964C",
"m. c #E29B53",
"M. c #E39F59",
"N. c #E4A25E",
"B. c #C39360",
"V. c #DA9B61",
"C. c #D39B64",
"Z. c #DEA166",
"A. c #D9A369",
"S. c #DFA96F",
"D. c #E4A564",
"F. c #E2A76B",
"G. c #E5AB6C",
"H. c #E5A867",
"J. c #E6AE70",
"K. c #E7B073",
"L. c #7C7B84",
"P. c #7F7F8A",
"I. c #81818C",
"U. c #8E8E9A",
"Y. c #8B8993",
"T. c #A39387",
"R. c #BAA492",
"E. c #9896A2",
"W. c #9E9EAC",
"Q. c #9494A1",
"!. c #A1A1AF",
"~. c #AFAEAD",
"^. c #ADADBC",
"/. c #B1B0BF",
"(. c #DFC8B8",
"). c #BABACA",
"_. c #B2B2C1",
"`. c #CACADC",
"'. c #C6C6D8",
"]. c #D8D8EB",
"[. c #D3D3E5",
"{. c #DEDEF1",
"}. c #EFEFEF",
"|. c #E0E0F4",
" X c #E6E6FA",
/* pixels */
" X X X X X X].C     I. X X X X X X X X).5   $ W. X X X X X X X X",
" X X X X X X].C @ y J Q.[.).I.P.!.{.^.E l , $ W. X X X X X X X X",
" X X X X X X].C 2 4.a 6 _.L.X O C `.P , +.v $ W. X X X X X X X X",
" X X X X X X].C e C.2.V S H | | [ D M  .j.V $ W. X X X X X X X X",
" X X X X X X].C 4 0.u.*.a _ m.m.2.9 ! i.g.B $ W. X X X X X X X X",
" X X X X X X].C - W &.p.7.h.J.J.V.7.i.9.^ 9 o W. X X X X X X X X",
" X X X X X^.L s i X.9.b.x.Z.K.K.F.V.l.a.:.Q 9 F U.{. X X X X X X",
" X X X X XI.. i X.d.n.m.G.J.K.K.J.K.D.n.b.&.W : C ]. X X X X X X",
" X X X X XI.. Q y.H.G.G.J.K.K.K.K.K.J.H.H.k.@.2 C ]. X X X X X X",
" X X X XP.J a @.k.J.K.K.K.K.K.K.K.K.K.K.K.c.t.b G L.). X X X X X",
" X X X X$ a 4.i.m.J.K.K.K.K.K.K.K.K.K.K.K.N.a.7._ & Y. X X X X X",
" X X X XW.U q o.k.J.K.K.K.K.K.K.K.K.K.K.K.c.8.z A E.'. X X X X X",
" X X X X X!.C V  .g.v.D.J.J.K.K.K.K.F.V.j.2._ A L.]. X X X X X X",
" X X X X X|.`.C : W @.u.F.J.J.J.K.K.z.4.^ 8 & E.{. X X X X X X X",
" X X X X X^.P L.I < 9 x q.z.z.z.k.z...y 2 A I.Y U.{. X X X X X X",
" X X X X XQ.7 U.Y.6 - q $.=.o.o.*.8.x ; 1 I _.L P ]. X X X X X X",
" X X X X X[._.L l w.0.-.p.! = = t i.9.;.w.K 7 U.'.|. X X X X X X",
" X X X X X).L.G [ S.3.! :.O.i i ~ t.O...C.3.a U !.|. X X X X X X",
" X X X X XI.X ] j.A.M > +.i.b.b.a.y.a 3 w.v.5.4 C ]. X X X X X X",
" X X X X XI.+ T.R.j x  .h.D.H.H.Z.Z.2.b s 6.(.k C ]. X X X X X X",
" X X X X XI.+ ~.~.% v s.H.G.Z.J.K.K.l.O.; T }.D C ]. X X X X X X",
" X X X X XI.+ ~.~.% m d.H.c.y.V.K.K.N.;.- T }.D C ]. X X X X X X",
" X X X X X).I.R U ,.q.D.J.f.) B >.S.H.z.1.K Y P.!.{. X X X X X X",
" X X X X X X].C p C.F.G.J.3.u < j w.C.A.j.N % W. X X X X X X X X",
" X X X X X X].C 4 8.s.m.G.>.= n b 3 ' 2.p @ $ W. X X X X X X X X",
" X X X X X).L.5 = z @.n.N.2.f f d t d t O   o L I.I.). X X X X X",
" X X X X XI.        m p.9.9.9.w 2 *.t . X X X X o % P.].]. X X X",
" X X X X XI.        r / X.h w O : ~ ! ! } ( ! <.r.~.R C C  X X X",
" X X X X X!.Z *     : r r :     # 8 c ! } } ' <.r.~.R C C  X X X",
" X X X X X|.`.Z     . . .         . . X X X X X o $ P.].]. X X X",
" X X X X X X{.!.I.I.7                 * Y I.I.I.P.I.). X X X X X",
" X X X X X X X X X XP                 5 ). X X X X X X X X X X X"
};
