/* XPM */
static char *player_up1719573625[] = {
/* columns rows colors chars-per-pixel */
"32 32 116 2 ",
"   c #07070B",
".  c #060810",
"X  c #121215",
"o  c #121318",
"O  c #1B1B1A",
"+  c #1C1B1B",
"@  c #1C1C1B",
"#  c #1D1C1C",
"$  c #1E1D1D",
"%  c #1E1E1C",
"&  c #21201F",
"*  c #212020",
"=  c #212120",
"-  c #252422",
";  c #252424",
":  c #262525",
">  c #272624",
",  c #272625",
"<  c #242427",
"1  c #292828",
"2  c #2A2A29",
"3  c #2D2C29",
"4  c #2B2B2C",
"5  c #2E2D2C",
"6  c #302F2E",
"7  c #31302E",
"8  c #323130",
"9  c #323233",
"0  c #363534",
"q  c #343436",
"w  c #383837",
"e  c #3B3B3A",
"r  c #3E3D3C",
"t  c #3F3F41",
"y  c #414140",
"u  c #444342",
"i  c #484847",
"p  c #49494A",
"a  c #4C4C4B",
"s  c #4E4E4D",
"d  c #4F5354",
"f  c #505051",
"g  c #535353",
"h  c #535354",
"j  c #565655",
"k  c gray34",
"l  c #585858",
"z  c #595858",
"x  c #5A5959",
"c  c #5C5C5B",
"v  c #5E5E5F",
"b  c #5F5F5F",
"n  c #646463",
"m  c #676767",
"M  c gray42",
"N  c #6C6B6B",
"B  c #6D6D6E",
"V  c #6F6F70",
"C  c gray45",
"Z  c #747474",
"A  c #777777",
"S  c #787879",
"D  c #787979",
"F  c #7B7B7B",
"G  c #7C7C7C",
"H  c #7C7D7D",
"J  c gray49",
"K  c #808080",
"L  c gray51",
"P  c #838383",
"I  c #818787",
"U  c #848585",
"Y  c gray52",
"T  c #858787",
"R  c #888888",
"E  c gray54",
"W  c #8B8B8B",
"Q  c #8C8C8D",
"!  c #8D8D8D",
"~  c #8E8E8E",
"^  c #909191",
"/  c #929394",
"(  c #939494",
")  c #969798",
"_  c #9EA4A6",
"`  c #A7AAAA",
"'  c #A6ABAD",
"]  c #ADAFAF",
"[  c #ACB1B3",
"{  c #B6BABA",
"}  c #BFBFBC",
"|  c #DFD8CF",
" . c #C3CDD0",
".. c #C9D3D5",
"X. c #CBD5D7",
"o. c #CCD7D9",
"O. c #CDD8DA",
"+. c #D0DADD",
"@. c #D1DCDE",
"#. c #E4DED3",
"$. c #E9E2D9",
"%. c #DAE7EA",
"&. c #DBE7EA",
"*. c #DEEBED",
"=. c #DFEBEE",
"-. c #E1E6E6",
";. c #E5EAE9",
":. c #F3EBE0",
">. c #F6F0E7",
",. c #E6F4F6",
"<. c #EBF1F0",
"1. c #E9F7FA",
"2. c #EAF7FA",
"3. c #EDFBFE",
"4. c #F4FAF9",
"5. c #F7FDFC",
/* pixels */
"! ! ! ! ! R ! Z Q Q Q ! ! ! ! ! ! ! ! ! ! ! ! Z Z ! ! ! ! ! ! ! ",
"R ! R ! ! ! ) _ ;...~ R d ; - - ; 0 m P ( &.3.3.! ! ! ! R ! ! ! ",
"! ! R ! ! ! ,.o.+...O. .; - - - ; - > > &.2.[ 3.X.! R ! ! ! R ! ",
"! ! ! ! ! ! 3.D ) U u ; > ; ; - - ; - - ; F R G *.! ! ! ! ! ! ! ",
"R R R R R ..1.Z L f 1 ; ; - ; - ; - ; - ; - D Z 3.R R R R R R R ",
"L L L U L ' 3.Z P x ; ; = - - ; - ; ; = = $ 8 Z @.R L P L L L L ",
"G G G G G U 1.G G D - = = = ; ; = - - - & O * Z T O.K G G G G G ",
"Z Z Z Z Z G O.Z Z Z ; ; ; ; ; = ; ; ; $ O O v Z Z 3.Z Z Z Z Z Z ",
"! ! ! ! ! ! ! ! ! ! 6 + = = - ; ; ; O O @ = ! ! ! ! ! ! ! ! ! Z ",
"! R R R ! ! ! ! ! ! U $ O O O O O O O O 5 L R ! ! ! ! ! ! ! ! Z ",
"! ! ! ! ! ! ! ! ! ! R ! I h 2 7 ; ; ; M G ! ! ! ! ! R ! R ! ! Z ",
"R ! ! ! ! ! ! ! ! ! ! ! ! j h 8 s 7 U ! ! ! ! ! ! ! ! ! ! ! R Z ",
"U R R R R R U R R R R Z D x > - ; ; x x V U R R R R R R R R L Z ",
"L L L U L L L L L L p f u p - - ; 3 > 7 . C L L L L L L P L L Z ",
"G G G G G G G L G G o v a - - 3 7 7 - e t t L G G G L G G G G Z ",
"Z Z Z Z Z Z Z Z Z C . . m r - - > - 3 m < q C Z Z Z Z Z Z Z Z Z ",
"! ! ! ! ! ! ! Z ! D   7 ! G n > 2 > Z R o N ! Z ! ! ! ! ! ! ! ! ",
"! R ! R ! R ! Z ! { { c ! U w = l > = ! U ` ! Z ! ! R ! ! ! R ! ",
"! R ! ! ! ! ! Z R <.5.( ! v O ; > @ 2 ( -.;.! Z ! ! ! ! R ! ! ! ",
"! ! ! ! R ! R Z R 2.5.! ! & $ ; ; + > ! 5.<.T Z R ! ! ! R ! ! ! ",
"R R R R R R L Z P -.4.^ 0 @ $ 5 > > a 0 ] 5.L Z L R R R R R R R ",
"L L L L P P L Z P :.} L ; $ @ @ + @ > 8 $.>.P Z L L P P P P L L ",
"L G G G G G G Z Z :.#.G M = - 8 y r r 7 | | G Z G G G G K G G G ",
"C Z Z Z Z Z Z Z Z Z Z Z m b Z Z C C i v Z Z Z Z Z Z Z Z Z Z Z Z ",
"! ! R ! ! ! ! ! ! ! ! ! 8 X ! Z ! W     ! ! ! ! ! ! ! ! ! ! ! Z ",
"! T ! ! ! R ! ! ! ! R R   2 R Z ! R   A G ! ! ! ! ! ! ! R ! ! Z ",
"! ! ! R ! ! R ! ! ! ! !     ! Z ! W   z R R R ! ! ! R ! ! ! ! Z ",
"R ! ! ! ! ! ! ! ! ! ! R     R Z T !     ! ! ! ! ! ! ! ! ! ! R Z ",
"L R R R R R R R T R R R     C Z P A   c R R R R R R R R R R L Z ",
"L L P P L L L L L U P L   x z Z P 4   b P P L L L L L P P P L Z ",
"G G G G L G G G G G G G p j m Z G B h   G G K G G G K G G G G Z ",
"D Z Z Z C Z Z Z Z Z Z Z Z Z Z Z Z Z M Z Z Z Z Z Z Z Z Z Z Z Z Z "
};
