/* XPM */
static char *_1576d7b87da449dbdb408715d2af59a8Zsullg3ZSAASF2H[] = {
/* columns rows colors chars-per-pixel */
"36 51 21 1 ",
"  c None",
". c #330001",
"X c #332117",
"o c #363235",
"O c #4B0002",
"+ c #7E0004",
"@ c #4B3223",
"# c #7E3132",
"$ c #4B413C",
"% c #514C4F",
"& c #655851",
"* c #656461",
"= c #6C656A",
"- c #FD0009",
"; c #B15858",
": c #877E84",
"> c #B1AFAA",
", c #E38786",
"< c #CAAFA2",
"1 c #FCDBCB",
"2 c #FDFBF3",
/* pixels */
"   OOOOOO                  OOOOOO   ",
"   OOOOOO                  OOOOOO   ",
"   OOOOOO                  OOOOOO   ",
"   ...---OOO            OOO---...   ",
"   ...---OOO            OOO---...   ",
"   ...---OOO            OOO---...   ",
"   ...+++---XXX@@@@@@XXX---+++...   ",
"   ...+++---XXX@@@@@@XXX---+++...   ",
"   ...+++---XXX@@@@@@XXX---+++...   ",
"   ...+++XXX###,,,,,,###XXX+++...   ",
"   ...+++XXX###,,,,,,###XXX+++...   ",
"   ...+++XXX###,,,,,,###XXX+++...   ",
"      XXX###,,,,,,,,,,,,###XXX      ",
"      XXX###,,,,,,,,,,,,###XXX      ",
"      XXX###,,,,,,,,,,,,###XXX      ",
"      @@@;;;;;;,,,,,,;;;;;;@@@      ",
"      @@@;;;;;;,,,,,,;;;;;;@@@      ",
"      @@@;;;;;;,,,,,,;;;;;;@@@      ",
"      @@@###;;;;;;;;;;;;###@@@      ",
"      @@@###;;;;;;;;;;;;###@@@      ",
"      @@@###;;;;;;;;;;;;###@@@      ",
"      XXX##################XXX      ",
"      XXX##################XXX      ",
"      XXX##################XXX      ",
"   222222XXX############XXX222222   ",
"   222222XXX############XXX222222   ",
"   222222XXX############XXX222222   ",
"222>>>>>>***XXXXXXXXXXXX***>>>>>>222",
"222>>>>>>***XXXXXXXXXXXX***>>>>>>222",
"222>>>>>>***XXXXXXXXXXXX***>>>>>>222",
"222>>>***===%%%%%%%%%%%%===***>>>222",
"222>>>***===%%%%%%%%%%%%===***>>>222",
"222>>>***===%%%%%%%%%%%%===***>>>222",
"ooo==============================ooo",
"ooo==============================ooo",
"ooo==============================ooo",
"ooo:::===ooo============ooo===:::ooo",
"ooo:::===ooo============ooo===:::ooo",
"ooo:::===ooo============ooo===:::ooo",
"   oooooo111111111111111111oooooo   ",
"   oooooo111111111111111111oooooo   ",
"   oooooo111111111111111111oooooo   ",
"      &&&111111<<<<<<111111&&&      ",
"      &&&111111<<<<<<111111&&&      ",
"      &&&111111<<<<<<111111&&&      ",
"      $$$<<<<<<&&&&&&<<<<<<$$$      ",
"      $$$<<<<<<&&&&&&<<<<<<$$$      ",
"      $$$<<<<<<&&&&&&<<<<<<$$$      ",
"         $$$$$$      $$$$$$         ",
"         $$$$$$      $$$$$$         ",
"         $$$$$$      $$$$$$         "
};
