/* XPM */
static char *collectible1719241997[] = {
/* columns rows colors chars-per-pixel */
"32 32 224 2 ",
"   c None",
".  c #1A3542",
"X  c #1A3644",
"o  c #1B3644",
"O  c #1C3B4A",
"+  c #1F3C4A",
"@  c #1F3C4B",
"#  c #1E4050",
"$  c #1E4253",
"%  c #1E4254",
"&  c #1F4355",
"*  c #1F4457",
"=  c #224150",
"-  c #224251",
";  c #234453",
":  c #244453",
">  c #244454",
",  c #254555",
"<  c #254757",
"1  c #204659",
"2  c #224759",
"3  c #254859",
"4  c #274859",
"5  c #274959",
"6  c #254D5B",
"7  c #294C5D",
"8  c #2A4E5F",
"9  c #2C4D5D",
"0  c #23535E",
"q  c #264E61",
"w  c #2C5062",
"e  c #2C5163",
"r  c #2D5163",
"t  c #2C5662",
"y  c #2D5265",
"u  c #2D5365",
"i  c #24536B",
"p  c #25546B",
"a  c #25566E",
"s  c #28546B",
"d  c #2B566B",
"f  c #2E566B",
"g  c #365564",
"h  c #385967",
"j  c #30576A",
"k  c #31576B",
"l  c #335B6E",
"z  c #255770",
"x  c #285E79",
"c  c #345C70",
"v  c #365F74",
"b  c #386277",
"n  c #396479",
"m  c #266280",
"M  c #276381",
"N  c #2A6481",
"B  c #286482",
"V  c #2A6684",
"C  c #286686",
"Z  c #2B6988",
"A  c #2E6A88",
"S  c #2C6C8B",
"D  c #2B6B8C",
"F  c #2E6C8C",
"G  c #2E6D8C",
"H  c #2D6D8E",
"J  c #3B6B83",
"K  c #3C6E83",
"L  c #3D6D85",
"P  c #3E6F85",
"I  c #336F8D",
"U  c #33718F",
"Y  c #34708E",
"T  c #35718F",
"R  c #3D7089",
"E  c #3F748E",
"W  c #2C7092",
"Q  c #2D7396",
"!  c #2D7497",
"~  c #2E769A",
"^  c #2F799D",
"/  c #377391",
"(  c #397593",
")  c #3D7490",
"_  c #3E7692",
"`  c #3A7694",
"'  c #30789C",
"]  c #317BA0",
"[  c #347CA0",
"{  c #327EA5",
"}  c #327FA6",
"|  c #347EA4",
" . c #3A7EA0",
".. c #417188",
"X. c #42728A",
"o. c #43738B",
"O. c #43748C",
"+. c #44768E",
"@. c #45768E",
"#. c #467790",
"$. c #457891",
"%. c #487B94",
"&. c #4A7E98",
"*. c #4A7F99",
"=. c #3F8696",
"-. c #38989F",
";. c #3F82A4",
":. c #3382A9",
">. c #3382AA",
",. c #3483AB",
"<. c #3484AC",
"1. c #3484AD",
"2. c #3586AE",
"3. c #3586AF",
"4. c #3587B0",
"5. c #3587B1",
"6. c #3689B3",
"7. c #4C819C",
"8. c #55839A",
"9. c #4280A0",
"0. c #4782A0",
"q. c #4883A1",
"w. c #4E84A0",
"e. c #4C88A6",
"r. c #4D89A7",
"t. c #5088A3",
"y. c #5188A4",
"u. c #5189A5",
"i. c #4693A4",
"p. c #4693A5",
"a. c #5792AF",
"s. c #408DB3",
"d. c #5192B3",
"f. c #5894B2",
"g. c #5995B3",
"h. c #5996B3",
"j. c #5499B2",
"k. c #579AB5",
"l. c #579AB6",
"z. c #569EB7",
"x. c #5898B5",
"c. c #5899B5",
"v. c #589CB6",
"b. c #569FB8",
"n. c #5E9DB9",
"m. c #649EBB",
"M. c #759EB2",
"N. c #55A3AC",
"B. c #55A0B8",
"V. c #54A4BA",
"C. c #54A5BB",
"Z. c #59A4BB",
"A. c #52A9BD",
"S. c #7CABBB",
"D. c #4FB2C1",
"F. c #4CB5C1",
"G. c #4FB5C3",
"H. c #4DB7C3",
"J. c #4EB6C3",
"K. c #57B2C3",
"L. c #53B4C4",
"P. c #56B4C4",
"I. c #53B8C5",
"U. c #67A7C1",
"Y. c #71A9C5",
"T. c #73A9C5",
"R. c #79ACC5",
"E. c #7AACC5",
"W. c #60B5C6",
"Q. c #75BFD2",
"!. c #5AC1CC",
"~. c #4FCFD1",
"^. c #56CDD2",
"/. c #59CBD2",
"(. c #5BCED2",
"). c #49D0D0",
"_. c #66C8D4",
"`. c #69C9D5",
"'. c #6BC9D5",
"]. c #7DDBE5",
"[. c #7FDCE5",
"{. c #80AEC5",
"}. c #83CADC",
"|. c #95C6DF",
" X c #81DDE4",
".X c #82DCE7",
"XX c #86DCE7",
"oX c #88DAE7",
"OX c #89DBE8",
"+X c #A1D6E4",
"@X c #A2D1E8",
"#X c #A6D2E8",
"$X c #A7D2E8",
"%X c #BAD9E8",
"&X c #BBD9E8",
"*X c #AEE7E9",
"=X c #A0E3F2",
"-X c #A1E3F2",
";X c #A2E3F3",
":X c #AFE6F8",
">X c #B4E7FA",
",X c #B5E8F8",
"<X c #B9E8FC",
"1X c #BBE9FD",
"2X c #BEE9FE",
"3X c #CEE0E8",
"4X c #C3EFF2",
"5X c #C1EAFF",
"6X c #C2EAFF",
"7X c #C3EBFF",
"8X c #C5EBFF",
"9X c #CDEEFF",
"0X c #CEEEFF",
"qX c #D8F2FF",
"wX c #DAF2FF",
"eX c #DCF3FF",
"rX c #DCF4FC",
"tX c #DDF4FF",
"yX c #EBF8FF",
"uX c #F5FBFF",
"iX c #F6FCFF",
"pX c #FAFDFF",
"aX c #FDFEFF",
"sX c white",
/* pixels */
"                            . . . .                             ",
"                          , 4 4 4 <                             ",
"                        o l o.+.+.n ,                           ",
"                      - : K j.l.h.$.e -                         ",
"                    @ l o.p.F.A.c.t.+.n 4                       ",
"                  @ ; P l.P.).L.c.h.g.%.e @                     ",
"                = l P p.F.'.XXQ.n.h.h.y.+.b 7                   ",
"              o - o.l.J.~..X<X|.m.h.h.h.g.&.y o                 ",
"            , l K p.L.'..X-X2X|.m.g.g.g.g.y.o.v 8               ",
"          . 4 o.j.F.~.XX1X2X7X|.m.g.g.h.g.g.g.*.k . .           ",
"          . 6 =.P.'.[.-X7X9XqX+XW.V.c.h.g.g.g.w.k . .           ",
"          . 0 -.^.OX>X1X7XeXuX*X(.J.l.g.g.g.x.w.k . .           ",
"          . t N.].-X7X9XqXyXsX4X X_.K.V.l.h.g.w.k . .           ",
"          . h S.:X1X8XeXuXpXsXrX>XoX(.F.b.g.g.7.k . .           ",
"          . g M.@X@X#X%X3X3X3X%X#X}.!.D.b.g.h.w.k . .           ",
"          . 9 8.Y.Y.Y.R.{.{.{.E.Y.U.Z.b.x.h.h.w.k . .           ",
"          . 4 E d.d.d.d.d.d.d.d.d.d.d.d.d.d.d.0.f . .           ",
"          . 1 T s.s.s.s.s.s.s.s.s.s.s.s.s.s.s. .s . .           ",
"          . 1 H 6.6.6.6.6.6.6.1.,.>.>.>.>.1.5.] i . .           ",
"          . 1 H 6.6.6.6.6.6.6.| Q W W W W ~ >.] i . .           ",
"          . 1 H 6.6.6.6.6.6.6.^ C m m m m D | [ p . .           ",
"          . 1 H 6.6.6.6.6.6.6.^ C m m m m H ;.9.s . .           ",
"          . 1 S 1.5.6.6.6.6.6.^ C m m x m I q.7.k . .           ",
"            * p V ' 6.6.6.6.6.^ C m m I ` _ J v 8               ",
"              o $ C 6.6.6.6.6.^ C m m T e.&.y o                 ",
"                $ z V ' 6.6.6.^ C A ( ) P b 8                   ",
"                  + $ C 6.6.6.^ C ( e.$.w +                     ",
"                    @ p C ' 6.:.! U R n 4                       ",
"                      $ $ V 1.5.<.H q -                         ",
"                        o p S H H x $                           ",
"                          * 1 1 1 *                             ",
"                            . . . .                             "
};
