/* XPM */
static char *collectible1719574148[] = {
/* columns rows colors chars-per-pixel */
"32 32 28 1 ",
"  c #131313",
". c gray8",
"X c #1B1B1B",
"o c #1E1E1E",
"O c gray13",
"+ c #252525",
"@ c #2A2A2A",
"# c #2D2D2D",
"$ c gray19",
"% c #353535",
"& c gray23",
"* c #3E3E3E",
"= c #414141",
"- c #444444",
"; c #484848",
": c gray32",
"> c #555555",
", c #5D5D5D",
"< c #626262",
"1 c #686868",
"2 c #6D6D6D",
"3 c #747474",
"4 c gray46",
"5 c gray49",
"6 c gray51",
"7 c #848484",
"8 c #888888",
"9 c #8D8D8D",
/* pixels */
"99999794999999999999999449999999",
"891oO99o999699979988999499997999",
"99oo+OoooXo+9999++o OOOO+X,99989",
"99 OO...7O+992@#o<==9OX  O*Xo999",
"88oOOX646687;o#7886881X X.OXX788",
"66.oOo64667@O%665O+66763O@o..X66",
"55.XoX5355@.O 55oXOo55535O@.Xo55",
"44 XX+33444OO.o3ooOXo3334O+ XX44",
"99XXX.999999X O3ooOoo9999OX .o94",
"97.oXX9999999894XXX.98#=@O...<93",
"99oXXX999989999X+OoX99#*&  Ooo93",
"89O..X99999999 X@Xo998#+@XXXo+63",
"68XX .o78888OXo X@8878oO+OXXXX63",
"66...ooXXO+ooXoXX66666.X+X..oo63",
"55 XX.OXXo+@ooO3555555@O$OX.X 53",
"44ooXoooXoX@43333444:@$o+ .X o33",
"99XX.XoXoO>%9999999o#$+o=oX.X.99",
"97oXXXoXX.X.9899996o%+O=  .Ooo79",
"989..XXXo.  o9999=XX%893 .oXOo99",
"999X.XoO8.  X999XO O+96o....@O99",
"888X.XXX68..Xo78oXo8886X .X OX78",
"766+X.XX66X.Xo66. .6666X.XoXOX66",
"555X.X X355..OO55555555X.oo.O.55",
"334X.XXo344X.XO44444443X .. X.44",
"998X.XXX9999oXX.9999999 ..X XX94",
"969 .oXX99887oX.o9989999.X.OoO94",
"999 .XX.99999Oo. 999978oOo-o@O93",
"899oXXXX999999o ..999998ooX$#O63",
"68867X.X+78888o XO786888+ XX+.74",
"6676666.X676666XXoX6667676666664",
"55555555555555335555555555555554",
"54333444333344333334333444333344"
};
