/* XPM */
static char *exit_open1719573624[] = {
/* columns rows colors chars-per-pixel */
"32 32 146 2 ",
"   c #010101",
".  c #0B0B0B",
"X  c #141414",
"o  c #1B1B1B",
"O  c #1F211E",
"+  c #242425",
"@  c #282E25",
"#  c #262A2B",
"$  c #2A2B2A",
"%  c #2F362A",
"&  c #292F31",
"*  c #382F32",
"=  c #2D3334",
"-  c #343434",
";  c #353D37",
":  c #31373A",
">  c #3D3D3D",
",  c #394334",
"<  c #373F42",
"1  c #3B4245",
"2  c #3D4649",
"3  c #414141",
"4  c #454B43",
"5  c #44474B",
"6  c #4C4C4C",
"7  c #495144",
"8  c #4E5C47",
"9  c #505D42",
"0  c #434F53",
"q  c #48575C",
"w  c #535353",
"e  c #5C5C5C",
"r  c #64414B",
"t  c #705452",
"y  c #526349",
"u  c #566B4B",
"i  c #5C754E",
"p  c #5E7352",
"a  c #6A6D51",
"s  c #637C54",
"d  c #667E59",
"f  c #504862",
"g  c #4E5D62",
"h  c #4F646A",
"j  c #54676D",
"k  c #4F6970",
"l  c #576D74",
"z  c #5A7076",
"x  c #59777F",
"c  c #646464",
"v  c #626D6D",
"b  c #6C6C6C",
"n  c #6E7A7A",
"m  c #747474",
"M  c #7D7D7D",
"N  c #904F47",
"B  c #AB5F56",
"V  c #B26152",
"C  c #A67953",
"Z  c #8A4461",
"A  c #6A8B56",
"S  c #6C8B5A",
"D  c #7F8F50",
"F  c #749B5C",
"G  c #718F60",
"H  c #749170",
"J  c #7DAA61",
"K  c #959A5A",
"L  c #A0B05C",
"P  c #85B367",
"I  c #87B867",
"U  c #CA915E",
"Y  c #8EC26C",
"T  c #96CF71",
"R  c #99D374",
"E  c #9FDC77",
"W  c #9FDA78",
"Q  c #B8D264",
"!  c #A3E17A",
"~  c #CAC857",
"^  c #D9DA57",
"/  c #DCE45F",
"(  c #5C7982",
")  c #686685",
"_  c #617F87",
"`  c #6E6298",
"'  c #816FB5",
"]  c #857AB7",
"[  c #8D7AC6",
"{  c #9A69EA",
"}  c #68868F",
"|  c #678790",
" . c #698E99",
".. c #778C92",
"X. c #7C8D93",
"o. c #69919C",
"O. c #6B97A3",
"+. c #7096A1",
"@. c #77A9B7",
"#. c #7BAAB7",
"$. c #7BAFBD",
"%. c #838383",
"&. c #8B8B8B",
"*. c #84969C",
"=. c #8890A6",
"-. c #8E9EA4",
";. c #99AFAF",
":. c #81A6B0",
">. c #84A9B3",
",. c gray64",
"<. c gray74",
"1. c #AEF181",
"2. c #B4FB85",
"3. c #989BC6",
"4. c #82A9C6",
"5. c #89BCCA",
"6. c #ADBEC4",
"7. c #87C1CF",
"8. c #84C4D4",
"9. c #8ACADA",
"0. c #93C4D1",
"q. c #9CCBD7",
"w. c #AFC0C4",
"e. c #ACC8D0",
"r. c #90D4E6",
"t. c #93D8EA",
"y. c #98DEF1",
"u. c #B6DAE3",
"i. c #95E3F6",
"p. c #99E6FA",
"a. c #97EAFF",
"s. c #99E9FD",
"d. c #A3EAFD",
"f. c #B7EBF9",
"g. c #BEEBF9",
"h. c gray76",
"j. c gray85",
"k. c #CFDFE4",
"l. c #CFE4EC",
"z. c #D8E3E6",
"x. c #C6ECF7",
"c. c #C8ECF7",
"v. c #D7EDF3",
"b. c #E4E4E4",
"n. c #E3E8EA",
"m. c #E7EDF0",
/* pixels */
"&.&.%.%.%.%.&.m &.&.&.&.&.&.&.&.&.&.&.&.&.&.&.m m &.%.M %.&.&.&.",
"&.&.c X $ 5 a c %.&.&.&.&.&.&.&.&.&.&.&.&.&.&.m M e > X - %.&.&.",
"&.%.e         . 5 b %.&.&.&.&.&.&.&.&.&.%.%.b > o       o M &.&.",
"&.&.m .           . 6 m &.&.M b b &.&.%.c >             3 &.&.&.",
"&.%.M >               $ c c $   o e c >                 c %.&.%.",
"%.%.M w       + q 2 .   X +       X       # < +       $ m %.%.%.",
"M M M b +     _ e.w...=               o ( $.5.o.#     w M M M M ",
"m m m b >     -.n.m.z.:.&           X o.t.d.v.0.2   X c m m m m ",
"&.&.&.&.c .   X.z.n.c.i.+..         j t.s.x.m.6.-   6 %.&.&.&.M ",
"&.&.&.&.M >   g u.g.s.s.9.0       . #.d.s.d.l.*.  . b &.&.&.&.m ",
"&.&.&.&.&.e . o #.p.s.a.i.}       ; q.c.d.p.0.2   6 X.&.&.&.&.m ",
"&.&.&.&.&.M >   1 7.a.d.c.>.      z u.v.f.r.z   - M &.&.&.&.&.m ",
"%.&.%.&.%.&.b +   g r.f.k.X.o     x t.f.y.| . O c &.K ' &.&.%.m ",
"%.%.%.%.%.%.M w o X  .i.q.h O   X k 8.p.#.o X w M &.) K K ` %.m ",
"M M M M M M M m 6 X : 8.O.5 > - 1 2 @.t.q . 3 m M M ' G M M C _ ",
"m m m m m m m m b # O O.l 5 e &.c > ) 4.: + c m m m m m m m n ) ",
"&.&.&.&.&.&.&.m b $ * Z 3 3 9 ' w > 5 ` f $ m m &.&.&.&.&.&.&.&.",
"&.&.&.&.&.%.M 6 + O t r > > > 6 4 3 > v n X - w %.&.&.&.&.&.&.&.",
"&.&.&.&.&.m 3 . o S A 3 3 3 6 e 3 > 3 4 A p   o 6 M &.&.&.&.&.&.",
"&.&.&.&.m -   . m F 9 3 > 3 5 w 3 > 3 3 i V a . . 3 M &.&.-.&.&.",
"&.&.&.M 4   . v =.a 1 3 3 3 b e 6 > 3 3 7 N W S o   6 M &.&.&.&.",
"%.%.M c   . s R H 8 3 3 < 5 e b.e > 3 > 3 y T ;.s . . e C _ ] _ ",
"M M m 3   8 ~ R u 3 > 3 < 5 %.j.c 3 > 3 3 7 F 3.[ 7   O b M C n ",
"m m e . @ L ^ F 7 3 > 3 < 2 C h.e 3 > 3 > 3 8 ] { Y $ . w m m m ",
"&.&.e   s ! ` g > 3 3 3 > 3 e ,.6 3 > 3 3 > 4 F ! 2.F $ w &.&.m ",
"K ' 4 . B U ) 6 3 3 > 3 3 3 6 6 3 3 3 3 3 3 3 y Y 1.! > + %.&.m ",
"&.%.5 X B C 8 3 3 > 3 3 3 > 3 5 3 3 3 > 3 > 3 3 F E ! d X &.&.m ",
"&.&.c . P S 3 3 3 3 > > 3 6 6 e w 4 3 > 3 3 > 3 u I / L . %.&.m ",
"H ' 5 X J 8 3 > > 3 3 3 3 3 e <.w 3 3 3 3 > 3 3 5 D Q S O _ ) _ ",
"' K X , s 3 3 3 3 3 > 3 3 w 6 h.w 3 3 > 3 3 3 > 3 u P 7 . C ..C ",
"C n X % 8 3 > 3 > 3 3 3 3 e e b.6 3 3 > 3 3 3 3 , 4 s   l C ) M ",
"n v X $ 3 3 6 4 6 3 6 3 6 w m b.6 6 5 6 3 6 3 5 6 3 : O l m m m "
};
