/* XPM */
static char *exit_close1719573624[] = {
/* columns rows colors chars-per-pixel */
"32 32 169 2 ",
"   c #2D2D2D",
".  c #332D2D",
"X  c #3A2B2B",
"o  c #412D2D",
"O  c #4A2D2E",
"+  c #552C2D",
"@  c #473531",
"#  c #5B3332",
"$  c #6B2A2C",
"%  c #752B2D",
"&  c #792A2C",
"*  c #643930",
"=  c #673D35",
"-  c #79544A",
";  c #747474",
":  c #7C7272",
">  c #7D7D7D",
",  c #852C2E",
"<  c #8D292D",
"1  c #91262B",
"2  c #9C272C",
"3  c #98282D",
"4  c #9F3539",
"5  c #923E3F",
"6  c #A4262D",
"7  c #AC252C",
"8  c #BA242D",
"9  c #B72A2E",
"0  c #D61F2C",
"q  c #C4222D",
"w  c #CD212D",
"e  c #CD2A2F",
"r  c #D6222D",
"t  c #D8252C",
"y  c #DA2B2C",
"u  c #DB322E",
"i  c #CD2D36",
"p  c #D42631",
"a  c #D32933",
"s  c #D22F38",
"d  c #CD363E",
"f  c #D53234",
"g  c #D93433",
"h  c #D73E32",
"j  c #DF3F31",
"k  c #D1333B",
"l  c #D43D3E",
"z  c #E23D2C",
"x  c #8C4135",
"c  c #974231",
"v  c #B74C3E",
"b  c #CA5B3C",
"n  c #D95C3C",
"m  c #E6432B",
"M  c #EB4B2C",
"N  c #EF512C",
"B  c #F4562B",
"V  c #F65A2E",
"C  c #FA5E2B",
"Z  c #E14433",
"A  c #E24B35",
"S  c #FA5D30",
"D  c #FD6327",
"F  c #FB6A27",
"G  c #F5672C",
"H  c #FD632C",
"J  c #FB6B2C",
"K  c #F77525",
"L  c #F87326",
"P  c #F67B26",
"I  c #F97927",
"U  c #F7792A",
"Y  c #FA7D2C",
"T  c #EF6036",
"R  c #E3633F",
"E  c #F76631",
"W  c #FD6331",
"Q  c #F66831",
"!  c #F96836",
"~  c #C73A41",
"^  c #CD3C43",
"/  c #D13E43",
"(  c #924648",
")  c #9F5B49",
"_  c #BE4A4C",
"`  c #AE5045",
"'  c #A25846",
"]  c #AA5749",
"[  c #BA4C50",
"{  c #AD575A",
"}  c #B25356",
"|  c #BB5659",
" . c #B75C5E",
".. c #BD595C",
"X. c #B4624A",
"o. c #BA5F61",
"O. c #8B6C6D",
"+. c #9C6465",
"@. c #877979",
"#. c #8B7E7E",
"$. c #917475",
"%. c #997373",
"&. c #997D7E",
"*. c #AF6565",
"=. c #B56567",
"-. c #BA6366",
";. c #B46668",
":. c #B36A6C",
">. c #AC7274",
",. c #A97778",
"<. c #A47C7D",
"1. c #B07072",
"2. c #B97775",
"3. c #CD4147",
"4. c #C2464B",
"5. c #CB454B",
"6. c #CA4A4E",
"7. c #D14F43",
"8. c #CC5041",
"9. c #D75743",
"0. c #C74D52",
"q. c #C84D51",
"w. c #C55256",
"e. c #C45458",
"r. c #C26243",
"t. c #CB6247",
"y. c #C6644F",
"u. c #D36B4E",
"i. c #EE6C42",
"p. c #F16A42",
"a. c #F38A26",
"s. c #F5832A",
"d. c #FA832D",
"f. c #F98D2C",
"g. c #F6922B",
"h. c #F9972A",
"j. c #F39B2D",
"k. c #FA9E2E",
"l. c #F99333",
"z. c #F7A32E",
"x. c #F6AB2D",
"c. c #F9B42E",
"v. c #F6B82C",
"b. c #F7A431",
"n. c #FAA232",
"m. c #FBAB32",
"M. c #FAB331",
"N. c #F7BC30",
"B. c #F8C02D",
"V. c #FAD72F",
"C. c #FBDC2E",
"Z. c #FBC534",
"A. c #FAC537",
"S. c #FBCC32",
"D. c #FCCF38",
"F. c #FBD533",
"G. c #FDDC34",
"H. c #FBE32F",
"J. c #FDEB2D",
"K. c #FDE332",
"L. c #FDE931",
"P. c #FBE438",
"I. c #828282",
"U. c #8B8686",
"Y. c #8C8C8C",
"T. c #958585",
"R. c #9B8384",
"E. c #928A8A",
"W. c #A08080",
/* pixels */
"Y.Y.E.R.R.T.E.; Y.Y.Y.Y.Y.Y.Y.Y.Y.Y.Y.Y.Y.Y.Y.; ; E.E.<.R.E.Y.Y.",
"Y.E.=.a k q.-.+.R.E.Y.Y.Y.Y.E.Y.Y.Y.Y.Y.Y.Y.E.@.<.-./ a / R.Y.Y.",
"Y.E...0 0 0 0 p q.1.R.Y.Y.Y.Y.E.Y.Y.Y.Y.E.W.1.~ a 0 0 0 s <.Y.Y.",
"Y.E.1.p 0 0 0 0 0 r w.,.E.E.<.:.,.E.E.W.;.^ 0 0 0 0 0 0 5.E.Y.Y.",
"U.Y.&.^ 0 0 0 0 0 0 0 k =.;.d 0 g -.;.5.0 0 0 0 0 0 0 0 ;.U.U.U.",
"I.I.#.o.0 0 0 w 8 q 0 0 p d 0 0 0 r r r 0 a ~ p 0 0 0 ^ %.U.I.I.",
"> > > +.s 0 0 6 $ & 2 i 0 0 0 0 0 0 0 0 6 , & 4 s 0 0 | @.> > > ",
"; ; ; O.4.0 0 1 X   # v f 0 0 0 0 0 0 2 +     $ ~ 0 i +.; ; ; ; ",
"Y.Y.Y.Y.:.r 0 6 @   @ ' 8.r 0 0 0 0 9 #       & ^ 0 e.R.Y.Y.Y.> ",
"Y.Y.U.Y.<.3.0 q #       $ q 0 0 0 0 5 .     o 4 0 r 1.E.Y.Y.Y.; ",
"Y.Y.Y.Y.E.-.r r 9.=     O 6 0 0 0 e i.u.-   % ^ 0 e.&.Y.Y.Y.Y.; ",
"Y.Y.Y.Y.Y.<.5.0 e y.y.- . < 0 0 0 9 c ' X.] _ 0 ^ ,.Y.Y.Y.Y.U.; ",
"I.Y.Y.I.Y.Y.;.d r h T X.= , w 0 0 3 X * b 7.0 s :.U.I.Y.Y.Y.I.; ",
"I.I.I.I.I.> #. .a r M H p.` q 0 p &   X ( a p e.#.I.I.> I.I.I.; ",
"> > > > > > > @.0.r u C p.] 7 q 7 x n 8.6.p 4.$.> > > > > > > ; ",
"; ; ; ; ; ; ; ; O.f y B p.' $ ` X.t.E i.k ^ +.; ; ; ; ; ; ; ; ; ",
"Y.Y.Y.Y.Y.Y.Y.: :.y y C i.)   r.Q H H D z f 2.: Y.Y.Y.Y.Y.Y.Y.Y.",
"Y.Y.Y.Y.Y.U.<._ k r N H i.'   r.E W H D B t / } R.Y.Y.Y.Y.Y.Y.Y.",
"Y.Y.Y.Y.Y.>.5.r a M H D ! R b R W W H H C A 0 p e.<.E.Y.Y.Y.Y.Y.",
"Y.Y.Y.E.,.3.0 r M H D H H d.h.Y J H H D H V m r r 6.<.Y.Y.Y.Y.Y.",
"Y.Y.Y.&.0.0 r A C H H W J M.P.M.L H J J H H C M r r 0.&.Y.Y.U.U.",
"I.I.I.*.r r Z G H H H H H J U J H g.G.S.L H H C m 0 r o.U.I.I.I.",
"> > $._ 0 j V H J m.c.d.H H H H H s.x.k.J W H H V z 0 a %.> > > ",
"; ; +.r y B H H U Z.S.l.H H H H H H H J d.Y J H H B u 0 { ; ; ; ",
"Y.T...r m H H H E H F H H H J H W H G a.G.F.g.H H H M r 6.T.Y.; ",
"Y.T.6.p M H d.A.A.P E H F m.D.n.J f.F.V.L.V.f.W S H D y a T.Y.; ",
"Y.T.6.r B H a.G.K.v.k.Y J N.L.S.x.N.J.J.J.C.v.z.n.n.I M t <.Y.; ",
"U.E.q.t C E s.F.K.L.G.b.P B.L.J.J.J.L.J.J.L.J.J.K.G.z.z y T.Y.; ",
"I.U.3.y H H H L a.F.J.K.L.L.J.J.J.J.J.J.J.J.J.G.z.K J y u T.I.; ",
"I.I.^ y H H H H K F.J.J.J.J.J.J.J.J.J.J.J.J.J.G.j.D H y l I.I.; ",
"> > a y H H H H K Z.F.K.J.J.J.J.J.J.J.J.L.L.V.Z.a.D H t *.@.> ; ",
"; ; a u ! H H H H H U Z.J.J.J.J.J.J.J.J.J.V.g.H W H H t : ; ; ; "
};
