/* XPM */
static char *floor1719242520[] = {
/* columns rows colors chars-per-pixel */
"32 32 169 2 ",
"   c #0C150C",
".  c #0E190D",
"X  c #0F1E11",
"o  c #111E12",
"O  c #12210F",
"+  c #0C2211",
"@  c #132414",
"#  c #132915",
"$  c #1A2419",
"%  c #152C1A",
"&  c #1A2C1B",
"*  c #143115",
"=  c #1A3117",
"-  c #17311B",
";  c #1A341B",
":  c #1C3A1E",
">  c #22371E",
",  c #20381D",
"<  c #133020",
"1  c #1B3523",
"2  c #1D3A24",
"3  c #1F3E28",
"4  c #223324",
"5  c #243C24",
"6  c #2B3E26",
"7  c #2A3728",
"8  c #233E2B",
"9  c #2B3D2D",
"0  c #273F30",
"q  c #1E4129",
"w  c #234125",
"e  c #294427",
"r  c #24422C",
"t  c #2B452B",
"y  c #2C492D",
"u  c #31462D",
"i  c #324A2E",
"p  c #244332",
"a  c #2C4532",
"s  c #274A34",
"d  c #2C4B33",
"f  c #2B4A3B",
"g  c #334433",
"h  c #384735",
"j  c #344B33",
"k  c #3A4B35",
"l  c #384638",
"z  c #344D3B",
"x  c #3B4F3C",
"c  c #2E5135",
"v  c #355136",
"b  c #3A5336",
"n  c #35533B",
"m  c #3C553C",
"M  c #36583E",
"N  c #3E5A3E",
"B  c #42533C",
"V  c #455A3D",
"C  c #314E41",
"Z  c #345442",
"A  c #3C5542",
"S  c #365D47",
"D  c #3C5B44",
"F  c #365C4C",
"G  c #3C5B4A",
"H  c #3D5C50",
"J  c #3C6047",
"K  c #3D614D",
"L  c #415642",
"P  c #435C44",
"I  c #495D45",
"U  c #46564C",
"Y  c #445D49",
"T  c #4A5D4A",
"R  c #436145",
"E  c #4D6246",
"W  c #44634C",
"Q  c #4B644B",
"!  c #456A4E",
"~  c #4C6A4D",
"^  c #516347",
"/  c #546B46",
"(  c #51654C",
")  c #536B4D",
"_  c #596C4E",
"`  c #50704F",
"'  c #446553",
"]  c #4C6453",
"[  c #466952",
"{  c #4C6B56",
"}  c #476658",
"|  c #4B6759",
" . c #446A59",
".. c #4A6D5B",
"X. c #526451",
"o. c #536C53",
"O. c #596D53",
"+. c #536D5A",
"@. c #5C6E5B",
"#. c #4C7056",
"$. c #4E725B",
"%. c #547254",
"&. c #5C7354",
"*. c #597857",
"=. c #54735B",
"-. c #5B745B",
";. c #55795D",
":. c #5C7B5D",
">. c #617554",
",. c #627B57",
"<. c #63765B",
"1. c #627C5C",
"2. c #687D5B",
"3. c #536E61",
"4. c #4D7361",
"5. c #537563",
"6. c #5B7462",
"7. c #557A63",
"8. c #5B7C64",
"9. c #5B776B",
"0. c #547C69",
"q. c #5B7D6B",
"w. c #627665",
"e. c #627C65",
"r. c #697C64",
"t. c #617D6A",
"y. c #697E6A",
"u. c #627E70",
"i. c #68805D",
"p. c #5E8066",
"a. c #5E826B",
"s. c #5F896F",
"d. c #5D8072",
"f. c #648265",
"g. c #6C8265",
"h. c #63856C",
"j. c #6A8269",
"k. c #64886E",
"l. c #74856E",
"z. c #728A6C",
"x. c #628571",
"c. c #6B8776",
"v. c #648A74",
"b. c #6B8C75",
"n. c #6C8D79",
"m. c #718771",
"M. c #748B73",
"N. c #7B8F76",
"B. c #738F7C",
"V. c #6E9174",
"C. c #6C917B",
"Z. c #739277",
"A. c #73937E",
"S. c #7E9178",
"D. c #72997F",
"F. c #759480",
"G. c #7B9586",
"H. c #759B83",
"J. c #7A9C85",
"K. c #7E9C8A",
"L. c #7AA087",
"P. c #7DA38A",
"I. c #809686",
"U. c #869982",
"Y. c #82A48D",
"T. c #85A98F",
"R. c #84A293",
"E. c #83A991",
"W. c #8DAD9B",
/* pixels */
"] w.F.n.u.u.3.3.9.d.c.F.F.c.K.F.G.K.R.W.K.G.c.G.U 6.5.u.x.t.B.y.",
"8.x.0.5.3...4.} 4.q.v.v.F.F.L.F.H.H.s.C.x.a.x.t.A ..4.4...=.q.-.",
"q.0.q.q...4.4.4.5.x.H.v.v.F.K.E.x.s.H.v.7.8.a.' } 9.q.v.5.8.e.+.",
"4.0.4.0.0...3.5.7.7.$.v.v.C.E.P.v.C.0.J.v.a.p.{ ] u.x.n.q.7.6.o.",
"H H 0.5.5.0...} 5.f.v.b.8.H.P.J.P.L.v.V.p.$.=. .' a.s.v.8.%.=.=.",
"0.q.4. . .......8.j.x.q.5.D.J.H.P.L.C.n.s.7.[ W ' V.p.v.C.-.o.h.",
"H K ' ..} } 5.=.=.t.U +.+.b.C.h.b.C.v.p.C.k.;.{ ! h.h.p...Y { +.",
"H C f F z G G A & U x A z +.5.A ' 8.{ K { D j 5 n D D Y l l n n ",
" .' 5.} =.5.t.M.6.@.w.j.b.k.;.H.C.J.v.k.C.Y.H.t.] e.Q e.6.+.;.h.",
"C ' | } } 4.p.+.-.-.o.;.=.#.{ ;.b.s.;.$.h.K.V.=.Z Q E Q ' R +.=.",
"A W #.;.{ 8.t.@.T Q ' W K D +.x.v.7.;.a.f.Z.k.) g I O.O.~ Q A D ",
"U o.;.{ Q W O.T O.e.;.{ [ #.;.;.8.f.h.f.j.f.%.%.g o.O.E #.Q W J ",
"W %.{ X.I E L X.j.8.;.f.[ [ #.{ W ;.%.%.1.2.^ X.I *.>.` ^ ! %.~ ",
"W ..W -._ U ( X.&.:.f.;.=.+.#.6.%.! W #.>.I o.X.B / / 2.&.i.f.i.",
"Y W Y _ V I ( X.E E G Z f n E +.-.p.` i.z.<.^ I B _ &._ &.,.*.%.",
"D Z u k l 9 g g $ g t 4 4 1 z m m Q P ^ ^ O.B h 7 ^ &.V j j k B ",
"x T ( @.@.O.o.o.} Y D T L ] b.+.M.y.e.l.O.S.g.<.N.U.g.m.z.z.z.@.",
"h u B j N N n m x d m V A T -.w.Q X.O.&.) { E Q W h.:.*.:.&.2.-.",
"B B k C f D j x m u R B j Z ! -.L f.-.) ~ / ^ 9 P R p.k.6.r.^ y.",
"_ B s 1 p p s j C Z J D M W =.N I I :.r.i.&.W E P W ~ *.*.&.X.2.",
"E b t s s Z S Z z z F H Z | #.U ) _ *.) %.` / ] R D j D W Q O.X.",
"P i e y M f n v n s ' '  .} %.m X.) ~ ~ M c N z P Q R A N ~ %.1.",
"j b v V r n a 8 x b a f A U Z x Y m P ~ R E ! +.a A Q E V Q E Y ",
"4 5 t t 8 z u 7 > 6 5 4 7 4 0 4 r p 8 g m k ~ j 9 t j z x V P g ",
"A d y c m E R B B k k k I P E g A } A %.f.;.{ ] Z I D Y R P Q 6.",
"5 5 q r r r b t j y j b E P m & 1 r r D E E ~ k m V j s n n Y n ",
"q q w : ; a j l g a d d P n 1 + % 2 s K N J A d v N d v e c I j ",
": ; e y y j u t 5 ; 2 a w 2 < + % 1 q Z M J f 8 & 5 a v M N b 8 ",
"e j e i : w e , = = r y t 1 ; @ - 2 2 2 3 K p 1 % w j v d q w 5 ",
"= 5 y y y w = : = = e w 5 5 ; @ # 2 2 2 ; 3 % % 0 e e 5 e w y ; ",
"# ; : = = t e = @ > j t 5 t 5 % X # e y 1 # & X 2 a y 6 5 y : 5 ",
"& 7 & # @ + O O . @ , 4 5 > #   o o + ; @       $ @ & @ # 1 5 @ "
};
