/* XPM */
static char *floor1719574662[] = {
/* columns rows colors chars-per-pixel */
"32 32 6 1 ",
"  c #747474",
". c #777777",
"X c gray49",
"o c gray51",
"O c #888888",
"+ c #8D8D8D",
/* pixels */
"+++++O+ +++++++++++++++  +++++++",
"O+O++++ +++O+++O++OO+++ ++++O+++",
"++O++++ +++++++++++++++ ++O+++O+",
"++++++O O++++++OO+++++O O+++++++",
"OOOOOOo oOOOOOOOOOOOOOo oOOOOOOO",
"ooooooo ooooooooooooooo oooooooo",
"XXXXXXX XXXXXXXXXXXXXXX XXXXXXXX",
"                                ",
"+++++++++++++++ +++++++++++++++ ",
"+OOO+++++++++O+ +++++OO++++++++ ",
"++++++++++O++++ ++++++++++O+O++ ",
"O+++++++++++++O O+++++++++++++O ",
"oOOOOOOOOOOOOOo oOOOOOOOOOOOOOo ",
"ooooooooooooooo ooooooooooooooo ",
"XXXXXXXXXXXXXXX XXXXXXXXXXXXXXX ",
"                                ",
"+++++++ +++++++++++++++ ++++++++",
"+O+O+O+ +++O+O+++++++O+ ++O+++O+",
"+O+++++ ++O++++++++++++ ++++O+++",
"++++O+O O++++++++O++++O O+++O+++",
"OOOOOOo oOOOOOOOOOOOOOo oOOOOOOO",
"ooooooo ooooooooooooooo oooooooo",
"XXXXXXX  XXXXXXXXXXXXXX XXXXXXXX",
"                                ",
"++O++++++++++++ +++++++++++++++ ",
"+O+++O++++OO+++ +++O++++++++O++ ",
"+++O++O++++++++ +++++OO+++O++++ ",
"O+++++++++++++O O+++++++++++++O ",
"oOOOOOOOOOOOOOo oOOOOOOOOOOOOOo ",
"ooooooooooooooo ooooooooooooooo ",
"XXXXXXXXXXXXXX  XXXXXXXXXXXXXXX ",
"                                "
};
