/* XPM */
static char *front1719238405[] = {
/* columns rows colors chars-per-pixel */
"32 32 179 2 ",
"   c None",
".  c #000000",
"X  c #080501",
"o  c #0E0905",
"O  c #0D0C0B",
"+  c #110903",
"@  c #1C1005",
"#  c #10100F",
"$  c #1C130A",
"%  c #101010",
"&  c #1E1C1A",
"*  c #21160B",
"=  c #2C1A0A",
"-  c #241609",
";  c #331E0A",
":  c #291E12",
">  c #261D13",
",  c #32200F",
"<  c #38200B",
"1  c #2B2115",
"2  c #3E2913",
"3  c #382616",
"4  c #2E1F2A",
"5  c #2A2529",
"6  c #352E26",
"7  c #3A322B",
"8  c #393939",
"9  c #46290D",
"0  c #522F0F",
"q  c #432B13",
"w  c #452F1A",
"e  c #4B2D17",
"r  c #4F3318",
"t  c #523214",
"y  c #583210",
"u  c #523519",
"i  c #5D3B1C",
"p  c #643B16",
"a  c #4E3720",
"s  c #433322",
"d  c #412B32",
"f  c #4B3237",
"g  c #603F21",
"h  c #64411E",
"j  c #7F4B1C",
"k  c #4D453D",
"l  c #5B4A38",
"z  c #6B4423",
"x  c #69492A",
"c  c #744B24",
"v  c #7C4B22",
"b  c #7E5229",
"n  c #654D32",
"m  c #6C5338",
"M  c #775938",
"N  c #1D3C52",
"B  c #3C596E",
"V  c #505050",
"C  c #5D5D5D",
"Z  c #574D43",
"A  c #754D5B",
"S  c #67625D",
"D  c #776757",
"F  c #686868",
"G  c #756C61",
"H  c #757775",
"J  c #864F1D",
"K  c #89511E",
"L  c #84562A",
"P  c #8E5726",
"I  c #955C2B",
"U  c #835931",
"Y  c #8A5D31",
"T  c #835730",
"R  c #955F30",
"E  c #9B632F",
"W  c #87613A",
"Q  c #9B6531",
"!  c #996837",
"~  c #A26228",
"^  c #AB6A36",
"/  c #A06D3C",
"(  c #AC733C",
")  c #AE7137",
"_  c #B5723C",
"`  c #BB7539",
"'  c #C47C3A",
"]  c #826342",
"[  c #896742",
"{  c #976F43",
"}  c #9F794F",
"|  c #9B7147",
" . c #AA6F47",
".. c #A97846",
"X. c #BE7642",
"o. c #B47C46",
"O. c #BA7940",
"+. c #AC7F50",
"@. c #865A63",
"#. c #BF7E67",
"$. c #C47942",
"%. c #CC7E44",
"&. c #BC8145",
"*. c #B4895A",
"=. c #B58755",
"-. c #AE8557",
";. c #A48A6D",
":. c #BF9260",
">. c #CE8242",
",. c #CC834A",
"<. c #C5864B",
"1. c #DB8C43",
"2. c #D48B4A",
"3. c #D68B47",
"4. c #DB934C",
"5. c #C58D53",
"6. c #CD8E56",
"7. c #D58C52",
"8. c #DC9553",
"9. c #DC9855",
"0. c #D4945A",
"q. c #DB9B5D",
"w. c #D89559",
"e. c #E1974D",
"r. c #E39F5A",
"t. c #E29B53",
"y. c #E4A15D",
"u. c #C49460",
"i. c #DA9C61",
"p. c #D39E65",
"a. c #D58A6D",
"s. c #DDA266",
"d. c #D9A469",
"f. c #DDB07E",
"g. c #D1A576",
"h. c #E4A564",
"j. c #E1A669",
"k. c #E5AA6C",
"l. c #E5A867",
"z. c #E6AE70",
"x. c #E7B073",
"c. c #79838A",
"v. c #399FE8",
"b. c #54ACEB",
"n. c #8E8E8E",
"m. c #9C9894",
"M. c #A99986",
"N. c #879DAD",
"B. c #96A6B1",
"V. c #AEADAB",
"C. c #BAAFA4",
"Z. c #B4B3B3",
"A. c #C38197",
"S. c #D28A90",
"D. c #DF9597",
"F. c #C9B199",
"G. c #C788B6",
"H. c #CA9EBE",
"J. c #E096A4",
"K. c #EFC99F",
"L. c #CEC3B9",
"P. c #DFCEBE",
"I. c #E6CFB7",
"U. c #CCB0C4",
"Y. c #9AC3E1",
"T. c #88C3ED",
"R. c #A6D4F7",
"E. c #BCDCF1",
"W. c #CFCBCE",
"Q. c #D2D6D8",
"!. c #E8DED5",
"~. c #F4EADF",
"^. c #DFD0F2",
"/. c #C9D3F5",
"(. c #F9CDEE",
"). c #D7ECFA",
"_. c #EFEFEF",
"`. c #E6E6E6",
"'. c #FEFAF6",
/* pixels */
"                  . . .                     . . .               ",
"                  . 3 i *                 q i $ .               ",
"                  . b ` , o   o o o     X z 2.e .               ",
"                  . @.D. .h o c E Q u = L #.J.f .               ",
"                  . A S.7.E w _ t.t.T i ` a.A.d .               ",
"                  . e I X.$.X.p.x.k.6.X.$.^ v = .               ",
"                - 9 Y =.0.i.q.j.x.x.h.q.i.6.o.z < X             ",
"              . = K 5.x.z.z.x.k.k.k.k.x.x.x.z.( p X             ",
"              . q ' q.x.x.x.x.y.e.e.y.z.x.x.z.2.P o             ",
"              u L >.q.d.{ ] [ 5.t.y.-.D W -.z.8._ z 2           ",
"            o I >.%.q.:.6 X o } z.x.n X # m x.6.>.>.i . .       ",
"              2 c >.y.f.C.F O } x.x.n & n.F.k.8.^ r ,           ",
"                3 E o.g.~.B.N M.K.K.H B Q.I.u.( c o             ",
"                  X t | !.R.v.E.'.'.T.b.).F.j < o               ",
"                .   = w S N.R.^.(.(./.Y.c.Z < @   .             ",
"              . .   > > @ S W.H.G.G.U.V.7 * 1     .             ",
"                  . M -.v a 6 5 5 4 6 6 y E *.s X               ",
"                , i M W  .Y g q ; < t c / Q M x u               ",
"              . w 2.n 6 *.q.1.~ J K ` 4.d.D & ! ! o             ",
"              . k I.L.m.l U %.' ' 5.,._ x G Z.P.M.#             ",
"              . V _.Q.m.l L 7.9.y.x.i.o.g D Z.`.Z.%             ",
"              . V _.H 3 ) 9.z.z.x.x.z.j.2.b 5 Z.V.%             ",
"                8 F D { 0.h.z.i.0.0.s.z.h.=.] G C               ",
"                  . m u.j.j.j.7.>.>.w.j.k.p.=.3 .               ",
"                  . $ a &.4.,.3.1.1.2.7.4.! : o .               ",
"                . . . : &.2.$.I L v ^ ,.9.U . . .               ",
"            % O o o X 1 *.0.X.3 . . z ,.p.M . . . .             ",
"        . C V.;.| Q q $ L Q P = . . y I Q g . . . .             ",
"        . C V.;.| Q q o 9 y 0 @ . . ; y y = . . . .             ",
"            # O o o X . X X X . . . . X X X . . .               ",
"                      . . . . . . . . . . .                     ",
"                        . . . . . . . . . .                     "
};
