/* XPM */
static char *player_down1719495654[] = {
/* columns rows colors chars-per-pixel */
"32 32 197 2 ",
"   c #010100",
".  c #080501",
"X  c #0E0A05",
"o  c #0D0C0B",
"O  c #10100F",
"+  c #1C130A",
"@  c #1B1005",
"#  c #0E0E10",
"$  c #101010",
"%  c #1C1C1D",
"&  c #1B1714",
"*  c #110903",
"=  c #2D1B0B",
"-  c #20160C",
";  c #321D0A",
":  c #291E12",
">  c #38200B",
",  c #2A2014",
"<  c #392615",
"1  c #2E1F2A",
"2  c #2C2A2E",
"3  c #282327",
"4  c #352D25",
"5  c #38312C",
"6  c #36363B",
"7  c #522F0F",
"8  c #432B13",
"9  c #452F1A",
"0  c #4A2D16",
"q  c #4F3318",
"w  c #523214",
"e  c #583210",
"r  c #5C3B1C",
"t  c #47290D",
"y  c #643B16",
"u  c #4E3720",
"i  c #513C2C",
"p  c #412B32",
"a  c #4B3237",
"s  c #603F21",
"d  c #7F4B1C",
"f  c #5A4A3A",
"g  c #4D453D",
"h  c #6B4423",
"j  c #674728",
"k  c #7C4B22",
"l  c #724A24",
"z  c #7E5229",
"x  c #664D32",
"c  c #6C5338",
"v  c #785939",
"b  c #1D3C52",
"n  c #3C596E",
"m  c #49484E",
"M  c #44444A",
"N  c #584C45",
"B  c #505050",
"V  c #5C5250",
"C  c #685343",
"Z  c #754D5B",
"A  c #67625D",
"S  c #76665A",
"D  c #7C6449",
"F  c #585860",
"G  c #65646C",
"H  c #686464",
"J  c #776D66",
"K  c #6A6A74",
"L  c #717271",
"P  c #757579",
"I  c #7B7779",
"U  c #864F1D",
"Y  c #89511E",
"T  c #895628",
"R  c #835931",
"E  c #8A5D32",
"W  c #805B39",
"Q  c #835730",
"!  c #955F30",
"~  c #965A2A",
"^  c #9B632F",
"/  c #87613A",
"(  c #946232",
")  c #9B6531",
"_  c #9D6A38",
"`  c #AB6A36",
"'  c #A06D3C",
"]  c #AC733C",
"[  c #AE7137",
"{  c #B5723C",
"}  c #BB7539",
"|  c #A26228",
" . c #C47C3A",
".. c #826342",
"X. c #896742",
"o. c #976F43",
"O. c #9F794F",
"+. c #9B7147",
"@. c #A97846",
"#. c #B47C46",
"$. c #BD7741",
"%. c #AC7F50",
"&. c #AA6F47",
"*. c #865A63",
"=. c #BF7E67",
"-. c #C47942",
";. c #CC7E44",
":. c #BC8145",
">. c #B4895A",
",. c #B58755",
"<. c #AE8557",
"1. c #A48A6D",
"2. c #BF9260",
"3. c #CE8242",
"4. c #CC834A",
"5. c #C5864B",
"6. c #D48B4A",
"7. c #D88C45",
"8. c #DB934C",
"9. c #C58D53",
"0. c #CD8E56",
"q. c #D58C52",
"w. c #D4945A",
"e. c #DB9B5D",
"r. c #DC9655",
"t. c #E1974D",
"y. c #E39F5A",
"u. c #E29B53",
"i. c #E4A15D",
"p. c #C49460",
"a. c #DA9C61",
"s. c #D39E65",
"d. c #D58A6D",
"f. c #DDA266",
"g. c #D9A469",
"h. c #DDB07E",
"j. c #D1A576",
"k. c #E4A564",
"l. c #E1A669",
"z. c #E5AA6C",
"x. c #E5A867",
"c. c #E6AE70",
"v. c #E7B073",
"b. c #7C7B84",
"n. c #7F7F8A",
"m. c #79838A",
"M. c #399FE8",
"N. c #54ACEB",
"B. c #81818C",
"V. c #8E8E8E",
"C. c #8E8E9A",
"Z. c #8B8993",
"A. c #9C9894",
"S. c #A99986",
"D. c #9897A2",
"F. c #9E9EAC",
"G. c #9494A1",
"H. c #879DAD",
"J. c #96A6B1",
"K. c #A1A1AF",
"L. c #AEADAB",
"P. c #BAAFA4",
"I. c #ADADBC",
"U. c #B4B3B6",
"Y. c #D28A90",
"T. c #D18B97",
"R. c #C9B199",
"E. c #CA9EBE",
"W. c #C788B6",
"Q. c #E096A4",
"!. c #EFC99F",
"~. c #DFCEBE",
"^. c #CEC3B9",
"/. c #E6CFB7",
"(. c #BABACA",
"). c #B2B2C1",
"_. c #CCB0C4",
"`. c #91C3E7",
"'. c #A6D4F7",
"]. c #BCDCF1",
"[. c #CFCBCE",
"{. c #C9C9DB",
"}. c #D2D6D8",
"|. c #E8DED5",
" X c #F4EADF",
".X c #D9D9EB",
"XX c #D3D3E5",
"oX c #DEDEF1",
"OX c #DFD0F2",
"+X c #C9D3F5",
"@X c #F9CDEE",
"#X c #D7ECFA",
"$X c #EFEFEF",
"%X c #E6E6E6",
"&X c #E0E0F4",
"*X c #E6E6FA",
"=X c #FEFAF6",
/* pixels */
"*X*X*X*X*X*X*X*XF.#   2 (.*X*X*X*X*X*X*X*XB.    m .X*X*X*X*X*X*X",
"*X*X*X*X*X*X*X*XF.# < x I I.&XK.B.B.(.XXG.J s + m .X*X*X*X*X*X*X",
"*X*X*X*X*X*X*X*XF.# z } > H {.B * * b.U.5 s q.9 m .X*X*X*X*X*X*X",
"*X*X*X*X*X*X*X*XF.# *.Q.&.C B W ! ^ C V E =.Q.a m .X*X*X*X*X*X*X",
"*X*X*X*X*X*X*X*XF.# Z Y.q.! 0 @.u.u.Q r } d.T.1 m .X*X*X*X*X*X*X",
"*X*X*X*X*X*X*X*XF.# 0 ~ $.-.-.a.c.c.0.-.-.` U ; m .X*X*X*X*X*X*X",
"*X*X*X*X*X*XoXC.V 0 E ,.w.a.a.l.v.v.k.a.a.0.#.s i G I.*X*X*X*X*X",
"*X*X*X*X*X*X.Xm ; Y 5.c.c.c.c.c.x.z.c.v.c.c.z.] y . n.*X*X*X*X*X",
"*X*X*X*X*X*X.Xm <  .e.v.c.c.c.y.t.t.k.v.v.v.z.8.T X B.*X*X*X*X*X",
"*X*X*X*X*X(.b.C T 3.a.g.o.D X.9.i.u.<.D D <.c.r.[ h S B.B.*X*X*X",
"*X*X*X*X*XZ.& ( 3.;.e.2.4 o o O.c.v.x   o c c.0.;.3.j o # *X*X*X",
"*X*X*X*X*X{.A.N l 3.y.h.P.A o %.v.v.x , V.R.z.r.` w J F.K.*X*X*X",
"*X*X*X*X*X*XoXb.C ( #.j. XJ.b S.!.!.L n XX/.9.] W m K.*X*X*X*X*X",
"*X*X*X*X*X*X*XoXD.& w +.|.'.M.].=X=X`.N.#XR.U > B {.&X*X*X*X*X*X",
"*X*X*X*X*X*XoXC.K m.N 9 A H.'.OX@X@X+X`.m.N < H b.G I.*X*X*X*X*X",
"*X*X*X*X*X*X.XG F ).H : @ A [.E.W.W._.L.5 - < Z.C.6 G.*X*X*X*X*X",
"*X*X*X*X*X*X&X{.Z.6 D <.k q 2 2 3 1 4 5 r / >.f F ).XX*X*X*X*X*X",
"*X*X*X*X*X*X&XF.L j z X.&.! s t ; > w l _ ' / j c m.(.*X*X*X*X*X",
"*X*X*X*X*X*X.Xm 9 6.l 4 >.e.7.| U Y } 8.f...& ' _ X B.*X*X*X*X*X",
"*X*X*X*X*X*X.Xm g /.^.A.f v 3. .3.9.4.{ j J U.~.S.O B.*X*X*X*X*X",
"*X*X*X*X*X*X.Xm B $X[.A.f Q 6.r.i.v.a.#.s S U.%XL.$ B.*X*X*X*X*X",
"*X*X*X*X*X*X.Xm B $XI < ] r.c.c.c.v.v.l.8.z % U.L.$ B.*X*X*X*X*X",
"*X*X*X*X*X*X&XK.b.L S o.w.x.c.a.w.w.f.z.k.,...J P B.(.*X*X*X*X*X",
"*X*X*X*X*X*X*X*XF.# c p.f.x.l.q.3.;.w.l.x.s.,.< m .X*X*X*X*X*X*X",
"*X*X*X*X*X*X*X*XF.o + u :.8.4.7.7.7.6.6.t.( : X m .X*X*X*X*X*X*X",
"*X*X*X*X*X(.B.m.F o   : :.q.-.~ z z ` 4.r.v     2 b.(.*X*X*X*X*X",
"*X*X*X*X.Xm.$ O X X . , >.w.{ <     h 4.a./         B.*X*X*X*X*X",
"*X*X*X*Xm P L.1.+.) 8 + Q ^ T ;     w ~ ` u         B.*X*X*X*X*X",
"*X*X*X*Xm P L.1.+.) 8 * t e 7 @     ; e e ;     % M K.*X*X*X*X*X",
"*X*X*X*X.Xn.O X X X .     . .         . X       M {.&X*X*X*X*X*X",
"*X*X*X*X*X(.B.B.B.B.B.K %                 6 n.m.K.oX*X*X*X*X*X*X",
"*X*X*X*X*X*X*X*X*X*X*X(.2                 K *X*X*X*X*X*X*X*X*X*X"
};
