/* XPM */
static char *player_down1719573625[] = {
/* columns rows colors chars-per-pixel */
"32 32 132 2 ",
"   c #07070B",
".  c #060810",
"X  c #121215",
"o  c #121318",
"O  c #252422",
"+  c #272624",
"@  c #242427",
"#  c #282725",
"$  c #2A2928",
"%  c #2B2A29",
"&  c #2D2C2B",
"*  c #302F2E",
"=  c #31302F",
"-  c #2F3031",
";  c #323130",
":  c #323233",
">  c #343432",
",  c #363634",
"<  c #3A3937",
"1  c #373938",
"2  c #3B3A39",
"3  c #3E3D3C",
"4  c #3F3F41",
"5  c #414140",
"6  c #444342",
"7  c #414444",
"8  c #49494A",
"9  c #494B4B",
"0  c #4C4C4B",
"q  c #4D4C4C",
"w  c #505051",
"e  c #525251",
"r  c #535354",
"t  c #565555",
"y  c #565656",
"u  c gray34",
"i  c gray35",
"p  c #5C5B5B",
"a  c #5C5C5B",
"s  c #5E5E5F",
"d  c #5F5F5F",
"f  c #646463",
"g  c #656565",
"h  c #676767",
"j  c gray42",
"k  c #6C6B6B",
"l  c #6D6D6E",
"z  c #6F6F6E",
"x  c #6F6F70",
"c  c #6E7475",
"v  c #717171",
"b  c #727272",
"n  c #707677",
"m  c #747474",
"M  c gray46",
"N  c #777777",
"B  c #717779",
"V  c #767C7D",
"C  c #787879",
"Z  c #787979",
"A  c #7B7B7B",
"S  c #7C7C7C",
"D  c gray49",
"F  c #83807B",
"G  c #808080",
"H  c gray51",
"J  c #848484",
"K  c #848585",
"L  c #858787",
"P  c #848C8D",
"I  c #888888",
"U  c #8B8B8B",
"Y  c #8C8C8D",
"T  c #8D8D8D",
"R  c #8E8E8E",
"E  c #8D9697",
"W  c #939494",
"Q  c #969798",
"!  c #929B9C",
"~  c #9EA4A6",
"^  c #9FA8AA",
"/  c #A7AAAA",
"(  c #A6ABAD",
")  c #ADAFAF",
"_  c #B1ADA6",
"`  c #B7B2AA",
"'  c #BCB6AC",
"]  c #ACB1B3",
"[  c #AEB5B6",
"{  c #ADB7B9",
"}  c #B6BABA",
"|  c #B0BABC",
" . c #BFBFBC",
".. c #BEC9CB",
"X. c #C1CDCF",
"o. c #DFD8CF",
"O. c #C3CDD0",
"+. c #C5D1D3",
"@. c #C9D3D5",
"#. c #CAD4D6",
"$. c #CBD5D7",
"%. c #CCD7D9",
"&. c #CDD8DA",
"*. c #D0DBDE",
"=. c #D1DCDE",
"-. c #E4DED3",
";. c #E9E2D9",
":. c #ECE5DA",
">. c #D1DDE0",
",. c #D7E3E6",
"<. c #D8E4E7",
"1. c #D8E5E7",
"2. c #D8E5E8",
"3. c #D9E5E8",
"4. c #DBE7EA",
"5. c #DDEAEC",
"6. c #DFEBEE",
"7. c #E3E8E7",
"8. c #E5EAE9",
"9. c #F3EBE0",
"0. c #F6F0E7",
"q. c #FDF5E9",
"w. c #E2EEF1",
"e. c #E3F0F3",
"r. c #E6F4F6",
"t. c #ECF1F0",
"y. c #E9F7FA",
"u. c #EBF8FB",
"i. c #EDFBFE",
"p. c #F1F7F6",
"a. c #F5FBFA",
"s. c #F7FDFC",
/* pixels */
"T T T T T I T m Y Y Y R R R T T R R R R T T T m m T T T T T T T ",
"I T I T T T Q ~ 8.#.R I 9 O O O O , h H W 4.i.i.T T T T I T T T ",
"T T I T T T r.%.=.#.=.X.+ O O O O O O + <.u.] i.$.T I T T T I T ",
"T T T T T T i.Z Q I f & V V O O ^ r.| O O S I S 4.T T T T T T T ",
"I I I I I @.y.m H z V i.<.<.3.3...O.i.2.i.$ S m i.I I I I I I I ",
"H H H K H ( i.m H j e...= 2 2 2 2 2 2 2 2.2.t m =.I H K J H H H ",
"S S S S S K y.S S S | e., 2 2 2 2 2 2 2 9 i.y m K =.S S F S S S ",
"m m m m m S &.m m m ..7 O 2 B O 1 c , 2 { i.c n m i.m m n m m m ",
"T T T T T T T T T T 3.! 7 n +.| B i.O 2 w.>.T T T T T T T T T m ",
"T I I I T T T T T T I i.| <.5.u.E +.{ w.h K I T T T T T T T T m ",
"T T T T T T T T T T I T [ ,.P | >.| i.S A T T T T T I T I T T m ",
"I T T T T T T T T T T T T p i q w ; K T T T T T T T T T T T I m ",
"K I I I I I I I I I I N N i < _ q.= i i x K I I I I I I I I H m ",
"H H H K H H H H H K 8 w 6 p q.q.q.:.> ; . b K H H H H H H H H m ",
"S S S S S S H S S S o s 0 O O ' ` F O 2 4 4 G S A S S H S S S m ",
"m m m m m m b m m m . . h 3 O O $ # * h @ , m m m m m m m m m m ",
"T T T T T T T m U C . - R S f O $ O m I o k T m T T T T T T T T ",
"T I T I T I T m T } } d T K 5 O i & w T K / T n T T I T T T I T ",
"T I T T T T T m K t.a.W T f & O O O q W 7.8.T m T T T T I T T T ",
"T T T T I T I m I p.s.T T O O # $ $ O T s.t.I m I T T T I T T T ",
"I I I I I I H m H 7.a.E > O O & O $ 0 2 ) s.H m H I I I I I I I ",
"H H H H H H H m H 9. .G O O O & O O > = ;.0.H m H H H K H H H H ",
"G S S S S G S m m 9.-.S k O @ ; 5 5 5 = o.o.S m S S S S S F S S ",
"m m m m m m m m m m m m h d b b v b 8 s b m b m m m m m m m m m ",
"T T I T T T T T T T T T : X U m T T     T T T T T T T T T T T m ",
"T I T T T I T T T T I I   $ U m T I   N A T T T T T T T I T T m ",
"T T T I T T I T T T T T     T m T T   t T I I T T T I T T T T m ",
"I T T T T T T T T T T I     L m I T     T T R R T T T T T T I m ",
"H I I I I I I I I I I I     b m G b   a I I I I I I I I I I H m ",
"H H H J H H H H H K H H   i i m H %   d H K H H H H H K H H H m ",
"S S S S G S S S S S S S q t h b S z t   S S A H A S S S S H S m ",
"Z m m m m m m m m m m m m m m m m m k b b N b m m m m b n m m m "
};
