/* XPM */
static char *_3217951f46244ffa3f3eb243d6311c1IH1T3bNKrBey1rwF[] = {
/* columns rows colors chars-per-pixel */
"36 51 22 1 ",
"  c None",
". c black",
"X c #330001",
"o c #332117",
"O c #363235",
"+ c #4B0002",
"@ c #7E0004",
"# c #4B3223",
"$ c #7E3132",
"% c #4B413C",
"& c #514C4F",
"* c #655851",
"= c #656461",
"- c #6C656A",
"; c #FD0009",
": c #B15858",
"> c #877E84",
", c #B1AFAA",
"< c #E38786",
"1 c #CAAFA2",
"2 c #FCDBCB",
"3 c #FDFBF3",
/* pixels */
"   ++++++                  ++++++   ",
"   ++++++                  ++++++   ",
"   ++++++                  ++++++   ",
"   XXX;;;+++            +++;;;XXX   ",
"   XXX;;;+++            +++;;;XXX   ",
"   XXX;;;+++            +++;;;XXX   ",
"   XXX@@@;;;ooo######ooo;;;@@@XXX   ",
"   XXX@@@;;;ooo######ooo;;;@@@XXX   ",
"   XXX@@@;;;ooo######ooo;;;@@@XXX   ",
"   XXX@@@@@@$$$<<<<<<$$$@@@@@@XXX   ",
"   XXX@@@@@@$$$<<<<<<$$$@@@@@@XXX   ",
"   XXX@@@@@@$$$<<<<<<$$$@@@@@@XXX   ",
"      XXX$$$<<<<<<<<<<<<$$$XXX      ",
"      XXX$$$<<<<<<<<<<<<$$$XXX      ",
"      XXX$$$<<<<<<<<<<<<$$$XXX      ",
"      ###::::::::::::::::::ooo      ",
"      ###::::::::::::::::::ooo      ",
"      ###::::::::::::::::::ooo      ",
"      ###:::...::::::...:::ooo      ",
"      ###:::...::::::...:::ooo      ",
"      ###:::...::::::...:::ooo      ",
"      ooo$$$...::::::...$$$ooo      ",
"      ooo$$$...::::::...$$$ooo      ",
"      ooo$$$...::::::...$$$ooo      ",
"   333333ooo$$$$$$$$$$$$ooo333333   ",
"   333333ooo$$$$$$$$$$$$ooo333333   ",
"   333333ooo$$$$$$$$$$$$ooo333333   ",
"333,,,,,,===oooooooooooo===,,,,,,333",
"333,,,,,,===oooooooooooo===,,,,,,333",
"333,,,,,,===oooooooooooo===,,,,,,333",
"333,,,===---&&&&&&&&&&&&---===,,,333",
"333,,,===---&&&&&&&&&&&&---===,,,333",
"333,,,===---&&&&&&&&&&&&---===,,,333",
"OOO------------------------------OOO",
"OOO------------------------------OOO",
"OOO------------------------------OOO",
"OOO>>>---OOO------------OOO--->>>OOO",
"OOO>>>---OOO------------OOO--->>>OOO",
"OOO>>>---OOO------------OOO--->>>OOO",
"   OOOOOO222222222222222222OOOOOO   ",
"   OOOOOO222222222222222222OOOOOO   ",
"   OOOOOO222222222222222222OOOOOO   ",
"      ***222222111111222222***      ",
"      ***222222111111222222***      ",
"      ***222222111111222222***      ",
"      %%%111111******111111%%%      ",
"      %%%111111******111111%%%      ",
"      %%%111111******111111%%%      ",
"         %%%%%%      %%%%%%         ",
"         %%%%%%      %%%%%%         ",
"         %%%%%%      %%%%%%         "
};
