/* XPM */
static char *left_1_1719495763[] = {
/* columns rows colors chars-per-pixel */
"32 32 177 2 ",
"   c #010000",
".  c #090502",
"X  c #0E0A06",
"o  c #0B0B0C",
"O  c #130B04",
"+  c #130E09",
"@  c #1D1309",
"#  c #0E0E10",
"$  c #1E1311",
"%  c #1C1B1D",
"&  c #2B1B0C",
"*  c #241609",
"=  c #341F0E",
"-  c #2A1F13",
";  c #2C1D1A",
":  c #2F2315",
">  c #362412",
",  c #392817",
"<  c #2D1E28",
"1  c #242424",
"2  c #2B2A2C",
"3  c #34302F",
"4  c #3C3C3C",
"5  c #37373C",
"6  c #462F17",
"7  c #4B3117",
"8  c #49331C",
"9  c #5A3512",
"0  c #53351A",
"q  c #553415",
"w  c #47290D",
"e  c #623F1E",
"r  c #613812",
"t  c #483723",
"y  c #453523",
"u  c #523D2A",
"i  c #453930",
"p  c #4B3F32",
"a  c #63401E",
"s  c #7B4A1D",
"d  c #5F4427",
"f  c #66492A",
"g  c #734B24",
"h  c #7E5226",
"j  c #7D5329",
"k  c #6C5339",
"l  c #795B3B",
"z  c #795634",
"x  c #724D37",
"c  c #3B3B40",
"v  c #5B3C47",
"b  c #3C596E",
"n  c #4A494E",
"m  c #4B4443",
"M  c gray32",
"N  c #525259",
"B  c #584D49",
"V  c #685B56",
"C  c #685845",
"Z  c #78644F",
"A  c #5D5D63",
"S  c #725B70",
"D  c #6C6361",
"F  c #65656D",
"G  c #6F6C68",
"H  c #746E6B",
"J  c #6D6D77",
"K  c #737373",
"L  c #797579",
"P  c #804B22",
"I  c #885424",
"U  c #955E2A",
"Y  c #815D38",
"T  c #8C5E33",
"R  c #9A642F",
"E  c #86623C",
"W  c #9B6836",
"Q  c #9F6C39",
"!  c #AB6E33",
"~  c #A16D3B",
"^  c #AB733C",
"/  c #B67637",
"(  c #BC7A3A",
")  c #C37E3B",
"_  c #865346",
"`  c #806343",
"'  c #8D6840",
"]  c #9F764A",
"[  c #9F794F",
"{  c #A4774B",
"}  c #AD7A46",
"|  c #B17A42",
" . c #A77652",
".. c #B57A5B",
"X. c #926967",
"o. c #BD7E6F",
"O. c #C6803C",
"+. c #BA834A",
"@. c #B68956",
"#. c #C88B4C",
"$. c #D28A42",
"%. c #DB8E43",
"&. c #D38D48",
"*. c #D8924D",
"=. c #C99359",
"-. c #D79B5C",
";. c #DB9C5C",
":. c #D49352",
">. c #E09144",
",. c #E1964B",
"<. c #E2984F",
"1. c #E29D56",
"2. c #E39F59",
"3. c #E3A15B",
"4. c #DB9F60",
"5. c #D79E63",
"6. c #E79E76",
"7. c #D9A266",
"8. c #DAA56B",
"9. c #DAA469",
"0. c #DDA872",
"q. c #E3A464",
"w. c #E6AB6C",
"e. c #E5A867",
"r. c #E5AD70",
"t. c #E7B073",
"y. c #E9B27B",
"u. c #7B7B84",
"i. c #807E8A",
"p. c #AD799D",
"a. c #AE7CA0",
"s. c #54ACEB",
"d. c #81818C",
"f. c gray54",
"g. c #8E8E99",
"h. c gray61",
"j. c #9494A1",
"k. c #9E9EAC",
"l. c #9F9DA7",
"z. c #A1A1AF",
"x. c gray66",
"c. c #A2A2B0",
"v. c #ADADBC",
"b. c #B1B1BF",
"n. c #B4B3B4",
"m. c #CD879A",
"M. c #E29693",
"N. c #C8B095",
"B. c #E0BC95",
"V. c #EBB886",
"C. c #C183AC",
"Z. c #DDBCB7",
"A. c #EBA5B5",
"S. c #EFC59C",
"D. c #E0C5A9",
"F. c #E6D0BA",
"G. c #BBBBCB",
"H. c #B4B4C4",
"J. c #87C3EC",
"K. c #B2D3E8",
"L. c #C3C3C3",
"P. c #CACADB",
"I. c #D8D8D8",
"U. c #F4DCC2",
"Y. c #E4D3DF",
"T. c #F8E7D7",
"R. c #CFCFE1",
"E. c #D3D3E5",
"W. c #D8D8EB",
"Q. c #DEDEF1",
"!. c #CCE8FD",
"~. c #D7ECFA",
"^. c #EFEFEF",
"/. c #E6E5E4",
"(. c #E1E1F5",
"). c lavender",
"_. c #FBF9F7",
/* pixels */
").).).).).).).).).).).).).d.# k.).).).).).).).).).).).).).).).).",
").).).).).).).).).).).E.j.V > D c.(.v.j.E.).).).).).).).).).).).",
").).).).).).).).).).Q.b.2 > h = B P.F 2 H.Q.).).).).).).).).).).",
").).).).).).).).).).g.c o v m. .Y n u q m g.).).).).).).).).).).",
").).).).).).).).R.c.D t y X.A...P 8 x _ $ F ).).).).).).).).).).",
").).).).).).).).c.% ` 8.8.0.8.t 7 O.M.C.< F ).).).).).).).).).).",
").).).).).).Q.g.Z z @.t.t.t.w.@.{ 4.6.o.; F ).).).).).).).).).).",
").).).).).E.b.B a O.1.w.t.t.w.r.t.t.2.) 7 D G.W.).).).).).).).).",
").).).).).j.3 T O.%.,.1.r.q.<.e.r.y.2.%.( z 5 v.).).).).).).).).",
").).).).).d.X R >.>.~ I l +.3.w.9.+.:.1.>.h o k.).).).).).).).).",
").).).).W.u.$ ~ ,.>.e   # k t.t.=.I +.q.<.j # k.).).).).).).).).",
").).).).n S a.Z.S.,.e 1 f.N.t.t.8.=.| ^ -.Y # k.).).).).).).).).",
").).).).n S a.Y.T.V.G b I.F.t.t.q.=.| ~ { Z N H.).).).).).).).).",
").).).).W.u.% n._._.J.s.~.U.r.r.=.I +.@., F W.(.).).).).).).).).",
").).).).).G.d.L h._.!.K.D.y.3.#.| +.:.+.; F ).).).).).).).).).).",
").).).).).).W.F A L.Y.F.e.<.*.! ^ e.#.W i u.).).).).).).).).).).",
").).).).).).(.P.g.5 k { 7.w.e.7.-.<.j i l.R.).).).).).).).).).).",
").).).).).).Q.k.H f T +.9.e.q.w.w.2.Q f L v.).).).).).).).).).).",
").).).).).).W.n 6 O.3.t.8.2.*.4.0.t.2./ & F ).).(.W.(.).).).).).",
").).).).).).W.n t ;.3.#.f E 7.k z *.*./ & F ).).H.N c.).).).).).",
").).).).).).W.n t 8.#.h @ C B.d 8 *.$.! d D k.k.d.M u.k.k.).).).",
").).).).).).W.n t 8.k .   G /.M y 7.^ U =.` # # N /.K # # ).).).",
").).).).).).W.n , ~ 8 % K L.^.M t 8.| s f , . 0 l H u.i.d.).).).",
").).).).).E.v.4 * r & 1 x./.^.M y 5.Q q + + > ^ W X d.).).).).).",
").).).).).j.2 # . + . o 1 f.^.M 6 &.g O . 7 / ;.] X d.).).).).).",
").).).).d.n         , u # d d.2 * g >     > I l Z F v.).).).).).",
").).).).            l @.:   . X X X .         o N W.).).).).).).",
").).).).            - t 8 q 9 ' [  .y       o J H.(.).).).).).).",
").).).).n 2           O w q 9 E [ [ y     1 N H.).).).).).).).).",
").).).).W.u.            . . X X X X .     A W.(.).).).).).).).).",
").).).).).G.d.d.A .                 n d.d.v.).).).).).).).).).).",
").).).).).).).).k.#                 d.).).).).).).).).).).).).)."
};
