/* XPM */
static char *left1719238405[] = {
/* columns rows colors chars-per-pixel */
"32 32 164 2 ",
"   c None",
".  c #000000",
"X  c #090502",
"o  c #0E0A06",
"O  c #0B0B0B",
"+  c #140C04",
"@  c #130E09",
"#  c #1D1207",
"$  c #1E1311",
"%  c #1D1B1C",
"&  c #231407",
"*  c #26190C",
"=  c #2A1A0C",
"-  c #22160A",
";  c #351F0C",
":  c #2A1F13",
">  c #2C1D1A",
",  c #32200F",
"<  c #39210B",
"1  c #2F2315",
"2  c #362412",
"3  c #3A2411",
"4  c #3A2C1D",
"5  c #36291A",
"6  c #2D1E28",
"7  c #252525",
"8  c #2E2E2E",
"9  c #3C3C3C",
"0  c #4A2A0E",
"q  c #462F18",
"w  c #462E16",
"e  c #4B3117",
"r  c #47301A",
"t  c #4A341E",
"y  c #553212",
"u  c #5A3512",
"i  c #503418",
"p  c #57381A",
"a  c #5C3C1C",
"s  c #623F1E",
"d  c #613812",
"f  c #453523",
"g  c #483723",
"h  c #523E29",
"j  c #4B3F32",
"k  c #63401E",
"l  c #7B4A1D",
"z  c #5F4427",
"x  c #684B2D",
"c  c #734B24",
"v  c #794F25",
"b  c #7E5226",
"n  c #7D5329",
"m  c #674F34",
"M  c #7B4D3A",
"N  c #6C543B",
"B  c #6D5235",
"V  c #7B5D3C",
"C  c #785633",
"Z  c #5B3C47",
"A  c #593D52",
"S  c #3C596E",
"D  c gray28",
"F  c #4D4D4D",
"G  c #505050",
"H  c #5D5D5D",
"J  c #685845",
"K  c #6E6D6C",
"L  c #6E6B63",
"P  c #706E6B",
"I  c gray46",
"U  c #804B22",
"Y  c #8C5523",
"T  c #835528",
"R  c #955E2A",
"E  c #815E38",
"W  c #8C5E31",
"Q  c #9A642F",
"!  c #89633C",
"~  c #81603C",
"^  c #9B6936",
"/  c #9F6C39",
"(  c #AB6E33",
")  c #A16D3B",
"_  c #AB733C",
"`  c #B67637",
"'  c #BC7A3A",
"]  c #C37E3B",
"[  c #865346",
"{  c #8D6840",
"}  c #9F764A",
"|  c #9F794F",
" . c #A4774B",
".. c #AD7A46",
"X. c #B17A42",
"o. c #A77652",
"O. c #B57A5B",
"+. c #926967",
"@. c #BD7E6F",
"#. c #C6803C",
"$. c #BA834A",
"%. c #B18758",
"&. c #B98A56",
"*. c #C88B4C",
"=. c #D28A42",
"-. c #DB8E43",
";. c #D38D48",
":. c #D8924D",
">. c #C99359",
",. c #D19253",
"<. c #D79B5C",
"1. c #DB9C5C",
"2. c #D99450",
"3. c #E09144",
"4. c #E1964B",
"5. c #E2984F",
"6. c #E29D56",
"7. c #E39F59",
"8. c #E3A15B",
"9. c #DB9F60",
"0. c #D79E63",
"q. c #E79E76",
"w. c #D9A266",
"e. c #DAA56B",
"r. c #DAA469",
"t. c #DDA872",
"y. c #E3A464",
"u. c #E5A867",
"i. c #E6AB6C",
"p. c #E5AD70",
"a. c #E7B073",
"s. c #E9B27B",
"d. c #AD799D",
"f. c #AE7CA0",
"g. c #54ACEB",
"h. c gray55",
"j. c #868686",
"k. c gray61",
"l. c gray66",
"z. c #B4B3B4",
"x. c #CD879A",
"c. c #E29693",
"v. c #C8B095",
"b. c #EBB886",
"n. c #E0BC95",
"m. c #C183AC",
"M. c #DDBCB7",
"N. c #EBA5B5",
"B. c #EFC59C",
"V. c #E0C5A9",
"C. c #E6D0BA",
"Z. c #87C3EC",
"A. c #B2D3E8",
"S. c #C3C3C3",
"D. c #D8D8D8",
"F. c #F4DCC2",
"G. c #E4D3DF",
"H. c #F8E7D7",
"J. c #CCE8FD",
"K. c #D7ECFA",
"L. c #E3E3E3",
"P. c #EFEFEF",
"I. c #EEEAE7",
"U. c #FBF9F7",
/* pixels */
"                            .                                   ",
"                          - ; #                                 ",
"                        . 3 U ; +   X X                         ",
"                      . . Z x.o.c + < 0 @                       ",
"                    4 g g +.N.O.T e M [ - .                     ",
"                  . V e.e.t.t.h e ] c.m.6 .                     ",
"                ; v &.a.a.a.p. . .1.q.@.> .                     ",
"              * x =.6.i.a.p.i.i.p.a.8.' e *                     ",
"            o T ] -.4.6.i.y.6.u.a.a.6.-.' c .                   ",
"            o Q 3.3.( T { ..6.i.w.&.,.6.3.b .                   ",
"            $ ) 4.3.s . O J a.a.>.Y $.y.5.n .                   ",
"        . A d.M.B.4.s 7 h.v.a.a.r.>.X._ <.E .                   ",
"        . A f.G.H.b.L S D.F.p.a.r.>.X.)  .m .                   ",
"            % z.U.U.Z.g.K.F.p.p.>.Y $.&.5 o                     ",
"              H k.U.J.A.V.s.6.*.X.$.,.$.: .                     ",
"              . F S.D.C.y.4.:.( _ u.*.Q =                       ",
"                  8 N  .9.i.i.w.1.4.n *                         ",
"                2 a W $.r.i.8.i.i.8.^ p -                       ",
"              . w =.8.p.t.1.:.9.t.p.6.` = .                     ",
"              . t <.8.*.x ! 1.V C 2.4.` = .       .             ",
"              . g e.$.n # J n.j r :.=.( z 4     8 F 9           ",
"              . g e.N X . K I.G g r._ R >.V . . F L.K . .       ",
"              . 2 ) t % I S.P.G g r...l x 4 X p V K D           ",
"              . & d = 7 l.L.P.G f w./ y @ @ , _ ^ o             ",
"            . . X @ X o 7 h.P.G q ;.c + X i ` <.} o             ",
"          . . . . . 4 h @ 9 j.8 * c 2 . . 3 n E m o             ",
"        . . . . . . V %.1 X X o o o X . . . . . .               ",
"        . . . . . . : t y u u ! | | f . . . . .                 ",
"        . . . . . . . + 0 u p ! | o.f . . . .                   ",
"            . . . . . . X X X o o o X . . .                     ",
"                . . . . . . . . . . .                           ",
"                  . . . . . . . . .                             "
};
