/* XPM */
static char *_f1c722b7a124ca482f602659a6d5819ejTbYvEbqbTZ0s5a[] = {
/* columns rows colors chars-per-pixel */
"24 51 22 1 ",
"  c None",
". c black",
"X c #330001",
"o c #332117",
"O c #282627",
"+ c #363235",
"@ c #4B0002",
"# c #7E0004",
"$ c #4B3223",
"% c #7E3132",
"& c #4B413C",
"* c #655851",
"= c #656461",
"- c #6C656A",
"; c #FD0009",
": c #B15858",
"> c #877E84",
", c #B1AFAA",
"< c #E38786",
"1 c #CAAFA2",
"2 c #FCDBCB",
"3 c #FDFBF3",
/* pixels */
"               @@@@@@   ",
"               @@@@@@   ",
"               @@@@@@   ",
"            @@@;;;XXX   ",
"            @@@;;;XXX   ",
"            @@@;;;XXX   ",
"      $$$ooo;;;###XXX   ",
"      $$$ooo;;;###XXX   ",
"      $$$ooo;;;###XXX   ",
"   $$$<<<:::######XXX   ",
"   $$$<<<:::######XXX   ",
"   $$$<<<:::######XXX   ",
"$$$<<<<<<<<<::::::%%%ooo",
"$$$<<<<<<<<<::::::%%%ooo",
"$$$<<<<<<<<<::::::%%%ooo",
"$$$:::::::::::::::%%%ooo",
"$$$:::::::::::::::%%%ooo",
"$$$:::::::::::::::%%%ooo",
"$$$%%%...::::::%%%%%%ooo",
"$$$%%%...::::::%%%%%%ooo",
"$$$%%%...::::::%%%%%%ooo",
"ooo%%%...%%%%%%%%%%%%ooo",
"ooo%%%...%%%%%%%%%%%%ooo",
"ooo%%%...%%%%%%%%%%%%ooo",
"   ooo%%%333333%%%ooo   ",
"   ooo%%%333333%%%ooo   ",
"   ooo%%%333333%%%ooo   ",
"      333,,,,,,333      ",
"      333,,,,,,333      ",
"      333,,,,,,333      ",
"   OOO===,,,,,,===OOO   ",
"   OOO===,,,,,,===OOO   ",
"   OOO===,,,,,,===OOO   ",
"   OOO+++======+++OOO   ",
"   OOO+++======+++OOO   ",
"   OOO+++======+++OOO   ",
"   OOO+++>>>---+++OOO   ",
"   OOO+++>>>---+++OOO   ",
"   OOO+++>>>---+++OOO   ",
"   ***222+++OOO111***   ",
"   ***222+++OOO111***   ",
"   ***222+++OOO111***   ",
"   ***222222111111***   ",
"   ***222222111111***   ",
"   ***222222111111***   ",
"      ***111111&&&      ",
"      ***111111&&&      ",
"      ***111111&&&      ",
"         &&&&&&         ",
"         &&&&&&         ",
"         &&&&&&         "
};
