/* XPM */
static char *player_left1719573625[] = {
/* columns rows colors chars-per-pixel */
"32 32 135 2 ",
"   c #000002",
".  c #070604",
"X  c #080605",
"o  c #000009",
"O  c #060608",
"+  c #070709",
"@  c #07070B",
"#  c #06070D",
"$  c #06080E",
"%  c #0E0D0D",
"&  c #000012",
"*  c #050811",
"=  c #070810",
"-  c #060812",
";  c #060B17",
":  c #070A1A",
">  c #131212",
",  c #1A1915",
"<  c #1B1917",
"1  c #19191A",
"2  c #1A1C1C",
"3  c #1F1D1C",
"4  c #211F1C",
"5  c #231F1F",
"6  c #1D1F23",
"7  c #1D2126",
"8  c #1B2129",
"9  c #242321",
"0  c #252421",
"q  c #232524",
"w  c #272624",
"e  c #252426",
"r  c #242526",
"t  c #22252A",
"y  c #242528",
"u  c #21252E",
"i  c #20272F",
"p  c #292829",
"a  c #2D2C2A",
"s  c #2D2C2E",
"d  c #312F2F",
"f  c #31302E",
"g  c #313130",
"h  c #313233",
"j  c #353530",
"k  c #343636",
"l  c #383732",
"z  c #383634",
"x  c #383734",
"c  c #373837",
"v  c #393833",
"b  c #3B3A36",
"n  c #313538",
"m  c #34373A",
"M  c #36393B",
"N  c #353B3F",
"B  c #393A3A",
"V  c #424341",
"C  c #454445",
"Z  c #585857",
"A  c #5E5D5D",
"S  c gray37",
"D  c #5F5F5F",
"F  c gray40",
"G  c #717171",
"H  c #747474",
"J  c #777777",
"K  c #767C7D",
"L  c #777E7D",
"P  c #7A7A7B",
"I  c gray49",
"U  c #7C8384",
"Y  c gray51",
"T  c #838383",
"R  c gray53",
"E  c #888888",
"W  c #8C8B8B",
"Q  c #888E8E",
"!  c #8D8D8D",
"~  c #908F8E",
"^  c #8D9697",
"/  c #939294",
"(  c #919797",
")  c #949696",
"_  c #959A9B",
"`  c #969B9C",
"'  c #989A9A",
"]  c #97A0A1",
"[  c #9CA0A1",
"{  c #9EA4A5",
"}  c #A4A3A2",
"|  c #A3A7A8",
" . c #A4A9AA",
".. c #A2ADAF",
"X. c #A8ADAE",
"o. c #ACB2B3",
"O. c #AFBABC",
"+. c #B0BABC",
"@. c #B6C0C1",
"#. c #BAC4C5",
"$. c #BCC7C9",
"%. c #BDC9CB",
"&. c #C1CBCD",
"*. c #C1CDCF",
"=. c #C4CECF",
"-. c #C6D1D3",
";. c #CBD8D9",
":. c #F1E1C5",
">. c #FEF3DA",
",. c #FEF2DD",
"<. c #D1DEE0",
"1. c #D4E1E3",
"2. c #D5E2E4",
"3. c #D7E5E7",
"4. c #D8E5E7",
"5. c #D9E7E9",
"6. c #DBE6E9",
"7. c #DBE9EB",
"8. c #DCE9EB",
"9. c #DDEAEC",
"0. c #EAEBE1",
"q. c #EBEBE3",
"w. c #ECEAE2",
"e. c #E8EAE5",
"r. c #EBEAE4",
"t. c #E0ECEF",
"y. c #FDF4E5",
"u. c #FDF5E9",
"i. c #E2EFF1",
"p. c #E5F3F6",
"a. c #E8F6F8",
"s. c #EDFBFE",
"d. c #FBFFFC",
"f. c #FCFEFD",
"g. c #FEFFFC",
/* pixels */
"! ! ! ! ! E ! _ ! o.i.8.P G D Z D R ! ! ! ! ! H H ! ! ! ! ! ! ! ",
"E ! E ! ! ! ! P ) t.6.5.U f 0 0 B Q 8.8.s.! ! H ! ! ! ! E ! ! ! ",
"! ! E ! ! ! ! H / ' s.a 0 9 0 0 L 9.5. .s.! ! H ! ! E ! ! ! E ! ",
"! ! ! ! ! ! E H E ( a.<.;.8.1.+.4.$.r @.=.! E H E ! ! ! ! ! ! ! ",
"E E E E E E Y H Y S 9 +.p.2.1.O.9.z 0 V 8.| Y H Y E E E E E E E ",
"Y Y Y Y Y Y Y H [ -.9 r 9 9 9 9 8...g 9 #.&.Y H Y Y Y Y Y Y Y Y ",
"I I I I I I I H { 8.] i.5.9 r L 5.^ 9 a P I I H I I I I I I I I ",
"H H H H H H H H ` 5.5.%.s.9 9 L a.4.9 F H H H H H H H H H H H H ",
"! ! ! ! ! ! ! ! ! | s.p.5.<.<.3.+.0 r I ! ! ! ! ! ! ! ! ! ! ! H ",
"! E E E ! ! ! ! ! X.s.s.*.+.O.L 0 d S ! ! E E ! ! ! ! ! ! ! ! H ",
"! ! ! ! ! ! ! ! ! ! E ! I d 9 % S G ! ! ! ! ! ! ! ! E ! E ! ! H ",
"E ! ! ! ! ! ! ! ! ! ! ! 7 4 0 0 0 M ! ! ! ! ! ! ! ! ! ! ! ! E H ",
"Y E E E E E E E E E E m u.u.z 9 0 0 B E E E E E E E E E E E Y H ",
"Y Y Y Y Y Y Y Y Y Y Y t v l r 0 . y r Y Y Y Y Y Y Y Y Y Y Y Y H ",
"I I I I I I I I I I I I # . . 0 - I r N I I I I I I I I I I I H ",
"H H H H H H H H H H H     0 0 r H H O 0 H H H H H H H H H H H H ",
"! ! ! ! ! ! ! H ! ! ! d.w.l 0 r ! ! - 0 m ! ! H ! ! ! ! ! ! ! ! ",
"! E ! E ! E ! H ! ! ! r.r.  X 0 8 ! ! o f.m ! H ! ! E ! ! ! E ! ",
"! E ! ! ! ! ! H ! ! d.0.d w 0 1 g.n ! ! f.f.! H ! ! ! ! E ! ! ! ",
"! ! ! ! E ! E H E ! r.w.v 0 4 g.>.>.M ! f.g.E H E ! ! ! E ! ! ! ",
"E E E E E E Y H Y E r.j 0 0 v   ,.y.3 c 0.g.Y H Y E E E E E E E ",
"Y Y Y Y Y Y Y H Y Y k r X 5 :.  ,.,.} , d.d.Y W Y Y Y Y Y Y Y Y ",
"I I I I I I I H H I B . 0 b & I g r   I S 6 / H I I I I I I I I ",
"H H H H H H H H H H H 0 > O H H p s ~ H ( H H H H H H H H H H H ",
"! ! E ! ! ! ! ! ! ! F 2 O . ^ H C e ! ! ! ' ! ! ! ! ! ! ! ! ! H ",
"! E ! ! ! E ! ! ! ! R k 1 g ! H M e ! R ! ! ! ! ! ! ! ! E ! ! H ",
"! ! ! E ! ! E ! ! ! / S $ X ! H ! e B ! ! E E ! ! ! E ! ! ! ! H ",
"E ! ! ! ! ! ! ! ! ! ! ! @ @ E H R e e ! ! ! ! ! ! ! ! ! ! ! E H ",
"Y E E E E E E E E E E E # # Y H Y e # E E E E E E E E E E E Y H ",
"Y Y Y Y Y Y Y Y Y Y Y t $ Y Y H y y Y Y Y Y Y Y Y Y Y Y Y Y Y H ",
"I I I I I I I I I I u $ I : H i - I : I I I I I I I I I I I I H ",
"J H H H H H H H H H H H H H H H H H H H H H H H H H H H H H H H "
};
