/* XPM */
static char *_00bb37adb964d83a4b94d939ec5404bLndBdWWvqHu91v0l[] = {
/* columns rows colors chars-per-pixel */
"24 51 22 1 ",
"  c None",
". c black",
"X c #330001",
"o c #332117",
"O c #282627",
"+ c #363235",
"@ c #4B0002",
"# c #7E0004",
"$ c #4B3223",
"% c #7E3132",
"& c #4B413C",
"* c #655851",
"= c #656461",
"- c #6C656A",
"; c #FD0009",
": c #B15858",
"> c #877E84",
", c #B1AFAA",
"< c #E38786",
"1 c #CAAFA2",
"2 c #FCDBCB",
"3 c #FDFBF3",
/* pixels */
"   @@@@@@               ",
"   @@@@@@               ",
"   @@@@@@               ",
"   XXX;;;@@@            ",
"   XXX;;;@@@            ",
"   XXX;;;@@@            ",
"   XXX###;;;ooo$$$      ",
"   XXX###;;;ooo$$$      ",
"   XXX###;;;ooo$$$      ",
"   XXX######:::<<<$$$   ",
"   XXX######:::<<<$$$   ",
"   XXX######:::<<<$$$   ",
"ooo%%%::::::<<<<<<<<<$$$",
"ooo%%%::::::<<<<<<<<<$$$",
"ooo%%%::::::<<<<<<<<<$$$",
"ooo%%%:::::::::::::::$$$",
"ooo%%%:::::::::::::::$$$",
"ooo%%%:::::::::::::::$$$",
"ooo%%%%%%::::::...%%%$$$",
"ooo%%%%%%::::::...%%%$$$",
"ooo%%%%%%::::::...%%%$$$",
"ooo%%%%%%%%%%%%...%%%ooo",
"ooo%%%%%%%%%%%%...%%%ooo",
"ooo%%%%%%%%%%%%...%%%ooo",
"   ooo%%%333333%%%ooo   ",
"   ooo%%%333333%%%ooo   ",
"   ooo%%%333333%%%ooo   ",
"      333,,,,,,333      ",
"      333,,,,,,333      ",
"      333,,,,,,333      ",
"   OOO===,,,,,,===OOO   ",
"   OOO===,,,,,,===OOO   ",
"   OOO===,,,,,,===OOO   ",
"   OOO+++======+++OOO   ",
"   OOO+++======+++OOO   ",
"   OOO+++======+++OOO   ",
"   OOO+++--->>>+++OOO   ",
"   OOO+++--->>>+++OOO   ",
"   OOO+++--->>>+++OOO   ",
"   ***111OOO+++222***   ",
"   ***111OOO+++222***   ",
"   ***111OOO+++222***   ",
"   ***111111222222***   ",
"   ***111111222222***   ",
"   ***111111222222***   ",
"      &&&111111***      ",
"      &&&111111***      ",
"      &&&111111***      ",
"         &&&&&&         ",
"         &&&&&&         ",
"         &&&&&&         "
};
