/* XPM */
static char *player_right1719573625[] = {
/* columns rows colors chars-per-pixel */
"32 32 128 2 ",
"   c #000002",
".  c #070604",
"X  c #060707",
"o  c #080605",
"O  c #000009",
"+  c #060608",
"@  c #07070B",
"#  c #06070D",
"$  c #07080D",
"%  c #0E0D0D",
"&  c #000012",
"*  c #050811",
"=  c #060B17",
"-  c #070A1A",
";  c #131212",
":  c #1B1917",
">  c #181819",
",  c #1F1F1B",
"<  c #1A1C1C",
"1  c #1F1D1C",
"2  c #211F1C",
"3  c #231F1F",
"4  c #1D1F23",
"5  c #1D2126",
"6  c #1B2129",
"7  c #262421",
"8  c #242422",
"9  c #252422",
"0  c #242324",
"q  c #232524",
"w  c #262425",
"e  c #272624",
"r  c #22262A",
"t  c #242528",
"y  c #21252E",
"u  c #20272F",
"i  c #292829",
"p  c #2D2C2A",
"a  c #2D2C2E",
"s  c #302F2D",
"d  c #31302E",
"f  c #333231",
"g  c #353430",
"h  c #343636",
"j  c #393732",
"k  c #373837",
"l  c #393833",
"z  c #3B3A36",
"x  c #313538",
"c  c #34373A",
"v  c #373B3B",
"b  c #353B3F",
"n  c #393A3A",
"m  c #424341",
"M  c #454445",
"N  c #4E4E4D",
"B  c #585857",
"V  c #5A5959",
"C  c #5B5A5A",
"Z  c #5D5D5D",
"A  c gray37",
"S  c #5F605F",
"D  c gray40",
"F  c #717171",
"G  c #747474",
"H  c #767C7D",
"J  c #777E7D",
"K  c #797979",
"L  c gray49",
"P  c #7C8384",
"I  c gray51",
"U  c gray53",
"Y  c #888888",
"T  c #888E8E",
"R  c #8D8D8D",
"E  c #8D9697",
"W  c #919292",
"Q  c #939294",
"!  c #939798",
"~  c #949598",
"^  c #959A9B",
"/  c #969B9C",
"(  c #989A9A",
")  c #999FA0",
"_  c #A4A3A2",
"`  c #A3A7A8",
"'  c #A4A9AA",
"]  c #A2ADAF",
"[  c #ACB2B3",
"{  c #AFBABC",
"}  c #B0BABC",
"|  c #B6C0C1",
" . c #BAC4C5",
".. c #BDC9CB",
"X. c #C1CBCD",
"o. c #C1CDCF",
"O. c #C4CECF",
"+. c #C6D1D3",
"@. c #CBD8D9",
"#. c #F1E1C5",
"$. c #FEF3DA",
"%. c #FEF3DD",
"&. c #FDF3DE",
"*. c #D1DEE0",
"=. c #D4E1E3",
"-. c #D5E2E4",
";. c #D7E5E7",
":. c #D8E5E7",
">. c #D8E6E8",
",. c #DBE9EB",
"<. c #DCE9EB",
"1. c #DEEBED",
"2. c #EAEBE1",
"3. c #EBEBE3",
"4. c #ECEAE2",
"5. c #E8EAE5",
"6. c #EBEAE4",
"7. c #E0ECEF",
"8. c #FDF4E5",
"9. c #FDF5E9",
"0. c #E2EFF1",
"q. c #E3F1F4",
"w. c #E8F6F8",
"e. c #EDFBFE",
"r. c #F7FDFC",
"t. c #FBFFFC",
"y. c #FBFFFD",
"u. c #FEFFFE",
/* pixels */
"R R R R R Y R G R R R R R R Y A B A F K 7.q.[ F ^ R R R R R R R ",
"Y R Y R R R R G R R R e.1.<.T n 9 9 d P >.:.1.I W R R R Y R R R ",
"R R Y R R R R G R R R e.' :.<.J 9 9 9 9 p e.( J R R Y R R R Y R ",
"R R R R R R Y G Y R R O.| 9 ..:.} =.,.@.*.w.! G Y R R R R R R R ",
"Y Y Y Y Y Y I G I Y ' <.m 9 h ,.} =.=.q.{ 9 V G I Y Y Y Y Y Y Y ",
"I I I I I I I G I I X. .9 f ] <.7 7 9 9 9 9 +.! I I I I I I I I ",
"L L L L L L L G L L L K d 9 E :.H 9 9 ;.q.) ,.) L L L L L L L L ",
"G G G G G G G G G G G G S 9 :.w.H 9 9 e...;.,.^ G G G G G G G G ",
"R R R R R R R R R R R R L w 9 } >.*.*.>.w.e.` R R R R R R R R G ",
"R Y Y Y R R R R R R R R R V d 7 J } } X.e.e.' R R R R R R R R G ",
"R R R R R R R R R R Y R R R F N % 9 s L R R R R R R Y R Y R R G ",
"Y R R R R R R R R R R R R R b q 9 9 2 5 R R R R R R R R R R Y G ",
"I Y Y Y Y Y Y Y Y Y Y Y Y n 9 9 9 h 9.9.v U U Y Y Y Y Y Y Y I G ",
"I I I I I I I I I I I I I w q X 9 9 j j r I I I I I I I I I I G ",
"L L L L L L L L L L L L b w L * 9 X X # L L L L L L L L L L L G ",
"G G G G G G G G G G G G q X G G 9 9 9     G G G G G G G G G G G ",
"R R R R R R R G R R R c 9 $ R T 9 9 j 6.u.R R G R R R R R R R R ",
"R Y R Y R Y R G R R x u.O Y R 6 9 o   6.5.U R G R R Y R R R Y R ",
"R Y R R R R R G R R u.y.R R h u.: 9 9 g 3.r.R G R R R R Y R R R ",
"R R R R Y R Y G Y R y.y.R n $.$.u., 9 j 3.3.Y G Y R R R Y R R R ",
"Y Y Y Y U Y I G I U u.4.z 1 8.&.  l 9 9 d 4.I G I Y Y Y Y Y Y Y ",
"I I I I I I I G Q I y.u.> _ &.&.  #.3 X 9 z I G I I I I I I I I ",
"L L L L L L L G G Q 4 V L   0 f L & z 9 X n L G L L L L L L L L ",
"G G G G G G G G G G G ~ G R a i G G + ; 9 G G G G G G G G G G G ",
"R R Y R R R R R R R / R R R 0 M R W + + < D R R R R R R R R R G ",
"R Y R R R Y R R R R Y Y R R w v R R f > h R R R R R R R Y R R G ",
"R R R Y R R Y R R R R R R b w G R R + # A R Y R R R Y R R R R G ",
"Y R R R R R R R R R R R R w w G Y R + X R R R R R R R R R R Y G ",
"I Y Y Y Y Y Y Y Y Y Y Y Y $ w G I Y $ + Y Y Y Y Y Y Y Y Y Y I G ",
"I I I I I I I I I I I I I I t t I I I * r I I I I I I I I I I G ",
"L L L L L L L L L L L L L - G * u L = L * y L L L L L L L L L G ",
"K G G G G G G G G G G G G G G G G G G G G G G G G G G G G G G G "
};
