/* XPM */
static char *right_1_1719495763[] = {
/* columns rows colors chars-per-pixel */
"32 32 177 2 ",
"   c #010000",
".  c #090502",
"X  c #0E0A06",
"o  c #0B0B0C",
"O  c #130B04",
"+  c #130E09",
"@  c #1D1309",
"#  c #0E0E10",
"$  c #1E1311",
"%  c #1C1B1D",
"&  c #2B1B0C",
"*  c #241609",
"=  c #341F0E",
"-  c #2A1F13",
";  c #2C1D1A",
":  c #2F2315",
">  c #362412",
",  c #392817",
"<  c #2D1E28",
"1  c #242424",
"2  c #2B2A2C",
"3  c #34302F",
"4  c #3C3C3C",
"5  c #37373C",
"6  c #462F17",
"7  c #4B3117",
"8  c #49331C",
"9  c #5A3512",
"0  c #53351A",
"q  c #553415",
"w  c #47290D",
"e  c #623F1E",
"r  c #613812",
"t  c #483723",
"y  c #453523",
"u  c #523D2A",
"i  c #453930",
"p  c #4B3F32",
"a  c #63401E",
"s  c #7B4A1D",
"d  c #5F4427",
"f  c #66492A",
"g  c #734B24",
"h  c #7E5226",
"j  c #7D5329",
"k  c #6C5339",
"l  c #795B3B",
"z  c #795634",
"x  c #724D37",
"c  c #3B3B40",
"v  c #5B3C47",
"b  c #3C596E",
"n  c #49494E",
"m  c #4B4443",
"M  c gray32",
"N  c #525259",
"B  c #584D49",
"V  c #685B56",
"C  c #685845",
"Z  c #78644F",
"A  c #5D5D63",
"S  c #725B70",
"D  c #6C6361",
"F  c #65656D",
"G  c #6F6C68",
"H  c #746E6B",
"J  c #6D6D77",
"K  c #737373",
"L  c #797579",
"P  c #804B22",
"I  c #885424",
"U  c #955E2A",
"Y  c #815D38",
"T  c #8C5E33",
"R  c #9A642F",
"E  c #86623C",
"W  c #9B6836",
"Q  c #9F6C39",
"!  c #AB6E33",
"~  c #A16D3B",
"^  c #AB733C",
"/  c #B67637",
"(  c #BC7A3A",
")  c #C37E3B",
"_  c #865346",
"`  c #806343",
"'  c #8D6840",
"]  c #9F764A",
"[  c #9F794F",
"{  c #A4774B",
"}  c #AD7A46",
"|  c #B17A42",
" . c #A77652",
".. c #B57A5B",
"X. c #926967",
"o. c #BD7E6F",
"O. c #C6803C",
"+. c #BA834A",
"@. c #B68956",
"#. c #C88B4C",
"$. c #D28A42",
"%. c #DB8E43",
"&. c #D38D48",
"*. c #D8924D",
"=. c #C99359",
"-. c #D79B5C",
";. c #DB9C5C",
":. c #D49352",
">. c #E09144",
",. c #E1964B",
"<. c #E2984F",
"1. c #E29D56",
"2. c #E39F59",
"3. c #E3A15B",
"4. c #DB9F60",
"5. c #D79E63",
"6. c #E79E76",
"7. c #D9A266",
"8. c #DAA56B",
"9. c #DAA469",
"0. c #DDA872",
"q. c #E3A464",
"w. c #E6AB6C",
"e. c #E5A867",
"r. c #E5AD70",
"t. c #E7B073",
"y. c #E9B27B",
"u. c #7B7B84",
"i. c #807E8A",
"p. c #AD799D",
"a. c #AE7CA0",
"s. c #54ACEB",
"d. c #81818C",
"f. c gray54",
"g. c #8E8E99",
"h. c gray61",
"j. c #9494A1",
"k. c #9E9EAC",
"l. c #9F9DA7",
"z. c #A1A1AF",
"x. c gray66",
"c. c #A2A2B0",
"v. c #ADADBC",
"b. c #B1B1BF",
"n. c #B4B3B4",
"m. c #CD879A",
"M. c #E29693",
"N. c #C8B095",
"B. c #E0BC95",
"V. c #EBB886",
"C. c #C183AC",
"Z. c #DDBCB7",
"A. c #EBA5B5",
"S. c #EFC59C",
"D. c #E0C5A9",
"F. c #E6D0BA",
"G. c #BBBBCB",
"H. c #B4B4C4",
"J. c #88C3EC",
"K. c #B2D3E8",
"L. c #C3C3C3",
"P. c #CACADB",
"I. c #D8D8D8",
"U. c #F5DCC2",
"Y. c #E4D3DF",
"T. c #F8E7D7",
"R. c #CFCFE1",
"E. c #D3D3E5",
"W. c #D8D8EA",
"Q. c #DEDEF1",
"!. c #CCE8FD",
"~. c #D7ECFA",
"^. c #EFEFEF",
"/. c #E6E5E4",
"(. c #E1E1F5",
"). c lavender",
"_. c #FBF9F7",
/* pixels */
").).).).).).).).).).).).).).).).l.# i.).).).).).).).).).).).).).",
").).).).).).).).).).).E.j.v.(.z.D w V j.E.).).).).).).).).).).).",
").).).).).).).).).).Q.H.2 F P.n = h > 2 v.Q.).).).).).).).).).).",
").).).).).).).).).).g.m 0 u n Y  .m.v o 4 g.).).).).).).).).).).",
").).).).).).).).).).F $ _ x 8 I ..A.X.t t D k.R.).).).).).).).).",
").).).).).).).).).).F < C.M.O.7 u 6.0.8.8.` < c.).).).).).).).).",
").).).).).).).).).).F ; o.6.;.{ [ r.r.t.t.@.j V g.Q.).).).).).).",
").).).).).).).).W.G.D 7 ) 3.t.t.r.e.r.r.r.2.$.e B H.E.).).).).).",
").).).).).).).).v.5 z ( %.2.r.t.e.;.3.w.3.>.O.O.T 3 j.).).).).).",
").).).).).).).).k.o P ,.1.:.+.9.e.3.+.l I / ,.>.R X d.).).).).).",
").).).).).).).).k.# j <.e.+.I =.t.t.k # . e >.<.Q $ u.W.W.).).).",
").).).).).).).).k.o E ;.^ | =.9.t.t.N.f.1 e <.S.Z.p.S n n ).).).",
").).).).).).).).H.N Z ] Q } =.w.t.t.U.I.b G y.T.Y.a.S n n ).).).",
").).).).).).).).(.W.F , @.+.I =.t.t.U.~.s.J._._.b.% u.W.W.).).).",
").).).).).).).).).).F : +.:.+.| +.3.y.D.K.!.^.h.L i.G.).).).).).",
").).).).).).).).).).u.i W #.9.^ ! *.<.9.F.Y.L.F F W.).).).).).).",
").).).).).).).).).).R.l.i j <.;.4.w.w.7.{ k 3 g.P.(.).).).).).).",
").).).).).).).).).).v.L f W 3.w.w.3.e.9.+.E f H z.(.).).).).).).",
").).).).).(.W.(.).).F - / 2.r.0.4.,.3.8.r.3.$.6 n W.).).).).).).",
").).).).).z.N H.).).F & / *.*.z z 7.' f #.3.-.t n W.).).).).).).",
").).).).k.u.N f.k.k.D f ! $.:.6 d B.C @ h +.8.t n W.).).).).).).",
").).).).o K /.M # # ` =.U ^ 9.y M /.K   . k 8.t n W.).).).).).).",
").).).).d.u.G l q . , f s ^ 8.t M ^.L.K % 8 ~ > n W.).).).).).).",
").).).).).d.X W ^ > + + q Q 7.t n ^./.x.1 & r * 4 v.E.).).).).).",
").).).).).d.X ] -./ 0 . O g &.8 M ^.f.1 o . O . o 2 j.).).).).).",
").).).).).v.F Z Y j >     > g * 2 f.c O u ,         n d.d.).).).",
").).).).).).W.N o         . X X X . . : @.l               ).).).",
").).).).).).(.H.J o       y [ [ E 9 q q y :               ).).).",
").).).).).).).).H.N 1     y [ [ E 9 9 w O           2 n n ).).).",
").).).).).).).).(.W.A     . X X X X . .             u.W.W.).).).",
").).).).).).).).).).v.d.d.n                 . A d.d.G.).).).).).",
").).).).).).).).).).).).).d.                # k.).).).).).).).)."
};
