/* XPM */
static char *wall1719242520[] = {
/* columns rows colors chars-per-pixel */
"32 32 62 1 ",
"  c #0D0D0B",
". c #100F0D",
"X c #0F100D",
"o c #12110E",
"O c #19190F",
"+ c #151412",
"@ c #181614",
"# c #171814",
"$ c #1A1A15",
"% c #1D1D1A",
"& c #201F1B",
"* c #1F201B",
"= c #202014",
"- c #22221D",
"; c #27281F",
": c #29281E",
"> c #252522",
", c #282724",
"< c #272822",
"1 c #2A2B25",
"2 c #272628",
"3 c #2C2D2A",
"4 c #302F2B",
"5 c #2F312B",
"6 c #32332D",
"7 c #343532",
"8 c #383733",
"9 c #363935",
"0 c #3A3B35",
"q c #37393A",
"w c #3C3D3A",
"e c #403F3C",
"r c #3F4137",
"t c #3E413B",
"y c #42433C",
"u c #46483D",
"i c #3E4140",
"p c #444542",
"a c #484743",
"s c #474844",
"d c #4A4B45",
"f c #4C4E4A",
"g c #4E5145",
"h c #4F514B",
"j c #52534D",
"k c #56594E",
"l c #58594F",
"z c #4D5150",
"x c #545651",
"c c #575A51",
"v c #5A5C54",
"b c #5D5F59",
"n c #5D6155",
"m c #5D605A",
"M c #62655B",
"N c #6B6C5E",
"B c #626660",
"V c #656B61",
"C c #6A6E65",
"Z c #6C7367",
"A c #6C726A",
"S c #73766E",
/* pixels */
"q80fCNdvMnnlNMMZulNkjxMl87paae33",
"bj88de,15601:uuu0llvjxeaeaSSCbhv",
"bje8yMVdcncr8njr>9sse8743jBCvxvb",
"jf7qjMbjknZn16y:6<,>2&>2>hjvaxaB",
"de2*,0ffhhht16rt1,7q92&347aeaj8f",
"423,,32>5<5;<55rBBAAfdqzxf,qee32",
"4>43%,,%6mmnnVStvbvbBxszfi2&&2>&",
"4yjjy,%37sfncmMr7fffha>322>&8wq4",
"eeeeyr%*><5rugr-63>,2222&3*3iq2%",
"44>,3<*<1>>-1;rr84,32q7q77273322",
"pw99wt,wggp75<tkddfxq2*%&2%>6ssf",
"wwwpdd90rur61*ku0dpwq2iq2%32ppff",
"39peyp>&*<1;**;9w7pw2izi73$25997",
"%607>,$>;$**1*;;,2327izs3>@>$%>3",
"8496&-wett99;O**32>>%232##+$>333",
"0ey02-ajkftr;5r67430*233%*$34py0",
"6611%+*>7w;#7rdu:>144%,1%$&44wy6",
"-$--$$+++%=%**:-%&:,1O$>%>%%&%%%",
"0spy%***%-67r575=,414%8qqwq$--15",
"yu77%$*#<,15115--%,87&3466:$--5w",
"761*+o#*=,1*>-%#6y:&&O%&&%$+*--6",
"%*#O*-1$<6t95-%%,6we$%@$$%+%*O$&",
",$#%<<5$197767<%#$&&$$>$&1-$%%11",
"6- #*#o*#***=1%>6;>3$+@@117w,,77",
"*-o%<>**$$$+oO7><>53,*+38664=36,",
"%$o*>--*#5511>>>><3<53+341:1-35>",
"++ +%*%%$<51<=%%->%>3%%#&--OO%+#",
"+ +%-<1-=#=-%#+++++++ +Xo+&:#oO ",
"  %O%---%*o#%%++$$++o++Xo o   o+",
"oX O$-O->-$+%-$+%$+ #%#+++.o  oo",
"$+Xo  XoXOoo   X+.+% o+++ +%@$+$",
"oX   #ooOoo#OOOo@ +$  ++   @+#+o"
};
