/* XPM */
static char *wall1719573626[] = {
/* columns rows colors chars-per-pixel */
"32 32 12 1 ",
"  c #747474",
". c gray46",
"X c #777777",
"o c gray49",
"O c #8C7A48",
"+ c #917E4A",
"@ c #917F4B",
"# c #96834D",
"$ c #A08B52",
"% c gray51",
"& c #888888",
"* c #8D8D8D",
/* pixels */
"*****&* ***************  *******",
"&*&$+** ***&***&**&&*** ****&***",
"**$#+O* *************** **&***&*",
"**###O& &******&&***$$O &$$O****",
"&&##OO% %&&&&&&&&&&&$#O %$#OO&&&",
"%%###O% %%%%%%%%%%%%#OOX%###O%%%",
"oo##OOo oooooooooooo#OO o##OOooo",
"  ###O          $O X##O  ###OX  ",
"**###O*********$#O**#OO**##OO** ",
"*&##OO*******&*###O*##O**###O** ",
"**###O****$****##OO*##O**##OO** ",
"&*###O****$O**&###O&##O**###O*& ",
"%&##OO&&&&$#O&%##OO&##O%&###O&% ",
"%%###########################$$ ",
"o$#########O#####O###O#####O###$",
" O###OOOOO##OOO####O###OO####OO ",
"**##@O* **##O**### $##O %###O***",
"*&##@O* **#OO&*###O*##O *##OO&%*",
"*&##@O* **##O**###O*#OO *####***",
"**##@O& &*#OO**###O*##O &###O***",
"&&##@O% %&#OO&&##OO*##O o#O#O&&&",
"%%##@O% %%##O%%###O###O o###O%%%",
"oo##@Oo  o#+Ooo### X##O o##OOooo",
"  ##@O    @@O  ##OO # O  ###O   ",
"**#@@O****#OO**###O*###**#++O**o",
"*&@#@O****##O**#O#O&+O &&#+OO$* ",
"**#@@O&***#OO**###O*#+O&&##O ** ",
"&*@@@O****O#O*&##O#$++#**## O*& ",
"%&@@@O&&&&#OO&o#O#O%##O&&O#OO$& ",
"%%@@@O%%%%O#O%%O#OO%o o%%#O#O%% ",
"oo@@@OooooooOo ###OoooooooOOo%o ",
"X  OO           OO  X           "
};
