/* XPM */
static char *collectible_1_1719495829[] = {
/* columns rows colors chars-per-pixel */
"32 32 255 2 ",
"   c lavender",
".  c #E3E3F7",
"X  c #8390A1",
"o  c #243D4B",
"O  c #1A3542",
"+  c #647584",
"@  c #C3C7DA",
"#  c #D0D3E6",
"$  c #BAC0D3",
"%  c #748799",
"&  c #2E4E5F",
"*  c #274959",
"=  c #5C7586",
"-  c #A2ADBF",
";  c #C9CDE0",
":  c #DCDEF1",
">  c #DCDDF1",
",  c #9BA5B6",
"<  c #5C6F7F",
"1  c #517286",
"2  c #46758D",
"3  c #44768E",
"4  c #4D7388",
"5  c #587081",
"6  c #8693A3",
"7  c #C6CADD",
"8  c #E2E3F6",
"9  c #D4D7EA",
"0  c #BCC2D5",
"q  c #6E8192",
"w  c #244453",
"e  c #3C6E83",
"r  c #5499B2",
"t  c #579AB5",
"y  c #5996B3",
"u  c #467790",
"i  c #2C5163",
"p  c #546C7C",
"a  c #D0D3E7",
"s  c #DDDEF2",
"d  c #9AA4B5",
"f  c #677989",
"g  c #537488",
"h  c #417188",
"j  c #4693A5",
"k  c #4CB5C1",
"l  c #52A9BD",
"z  c #5899B5",
"x  c #5088A3",
"c  c #45768E",
"v  c #607889",
"b  c #8793A4",
"n  c #C1C6D9",
"m  c #234453",
"M  c #3E6F85",
"N  c #579AB6",
"B  c #53B4C4",
"V  c #4FCFD1",
"C  c #53B8C5",
"Z  c #589CB6",
"A  c #5995B3",
"S  c #487B94",
"D  c #2D5163",
"F  c #4A6171",
"G  c #9FAABC",
"H  c #D9DBEE",
"J  c #E0E1F5",
"K  c #4693A4",
"L  c #4FB5C3",
"P  c #6BC9D5",
"I  c #86DCE7",
"U  c #75BFD2",
"Y  c #5E9DB9",
"T  c #5188A4",
"R  c #43748C",
"E  c #4A7085",
"W  c #657D8F",
"Q  c #8A96A7",
"!  c #BEC3D6",
"~  c #49D0D0",
"^  c #82DCE7",
"/  c #BBE9FD",
"(  c #95C6DF",
")  c #649EBB",
"_  c #4A7F99",
"`  c #2D5365",
"'  c #3D5463",
"]  c #9BA5B7",
"[  c #A0E3F2",
"{  c #BEE9FE",
"}  c #5189A5",
"|  c #42728A",
" . c #466B80",
".. c #688092",
"X. c #C1EAFF",
"o. c #5894B2",
"O. c #5792AF",
"+. c #4D829D",
"@. c #365B6F",
"#. c #254D5B",
"$. c #3F8696",
"%. c #56B4C4",
"&. c #69C9D5",
"*. c #7FDCE5",
"=. c #A1E3F2",
"-. c #CEEEFF",
";. c #DAF2FF",
":. c #A1D6E4",
">. c #60B5C6",
",. c #54A5BB",
"<. c #4E84A0",
"1. c #31576B",
"2. c #23535E",
"3. c #38989F",
"4. c #56CDD2",
"5. c #89DBE8",
"6. c #B4E7FA",
"7. c #C2EAFF",
"8. c #DCF3FF",
"9. c #F6FCFF",
"0. c #AEE7E9",
"q. c #5BCED2",
"w. c #4EB6C3",
"e. c #569EB7",
"r. c #2C5662",
"t. c #55A3AC",
"y. c #7DDBE5",
"u. c #A2E3F3",
"i. c #C3EBFF",
"p. c #CDEEFF",
"a. c #D8F2FF",
"s. c #EBF8FF",
"d. c #FDFEFF",
"f. c #C3EFF2",
"g. c #81DDE4",
"h. c #66C8D4",
"j. c #57B2C3",
"k. c #54A4BA",
"l. c #385967",
"z. c #7CABBB",
"x. c #AFE6F8",
"c. c #B9E8FC",
"v. c #C5EBFF",
"b. c #DDF4FF",
"n. c #F5FBFF",
"m. c #FAFDFF",
"M. c white",
"N. c #DCF4FC",
"B. c #B5E8F8",
"V. c #88DAE7",
"C. c #59CBD2",
"Z. c #4DB7C3",
"A. c #55A0B8",
"S. c #365564",
"D. c #759EB2",
"F. c #A2D1E8",
"G. c #A6D2E8",
"H. c #BAD9E8",
"J. c #CEE0E8",
"K. c #BBD9E8",
"L. c #A7D2E8",
"P. c #83CADC",
"I. c #5AC1CC",
"U. c #4FB2C1",
"Y. c #569FB8",
"T. c #2C4D5D",
"R. c #55839A",
"E. c #71A9C5",
"W. c #73A9C5",
"Q. c #79ACC5",
"!. c #80AEC5",
"~. c #7AACC5",
"^. c #67A7C1",
"/. c #59A4BB",
"(. c #5898B5",
"). c #254859",
"_. c #3F748E",
"`. c #5192B3",
"'. c #4782A0",
"]. c #2E566B",
"[. c #224759",
"{. c #34708E",
"}. c #408DB3",
"|. c #3A7EA0",
" X c #28546B",
".X c #204659",
"XX c #2D6D8E",
"oX c #3689B3",
"OX c #3586AF",
"+X c #3483AB",
"@X c #3382AA",
"#X c #3484AC",
"$X c #3587B0",
"%X c #317BA0",
"&X c #24536B",
"*X c #327EA5",
"=X c #2D7396",
"-X c #2C7092",
";X c #2E769A",
":X c #3382A9",
">X c #2F799D",
",X c #286686",
"<X c #266280",
"1X c #2B6B8C",
"2X c #347EA4",
"3X c #347CA0",
"4X c #25546B",
"5X c #2E6D8C",
"6X c #3F82A4",
"7X c #4280A0",
"8X c #2B566B",
"9X c #284C5F",
"0X c #2F6E8D",
"qX c #3586AE",
"wX c #3587B1",
"eX c #276381",
"rX c #286482",
"tX c #336F8D",
"yX c #4883A1",
"uX c #718699",
"iX c #466E86",
"pX c #2A6481",
"aX c #30789C",
"sX c #2E6A88",
"dX c #3A7694",
"fX c #3E7692",
"gX c #3B6B83",
"hX c #1E4253",
"jX c #2B6988",
"kX c #35718F",
"lX c #4C88A6",
"zX c #4A7E98",
"xX c #2D5265",
"cX c #6C8092",
"vX c #477088",
"bX c #2A6684",
"nX c #397593",
"mX c #3D7490",
"MX c #3D6D85",
"NX c #657989",
"BX c #377391",
"VX c #4D89A7",
"CX c #457891",
"ZX c #2C5062",
"AX c #327FA6",
"SX c #2D7497",
"DX c #33718F",
"FX c #3D7089",
"GX c #3484AD",
"HX c #2E6C8C",
"JX c #264E61",
"KX c #3E6E88",
"LX c #546E81",
"PX c #587286",
"IX c #A1ADBF",
/* pixels */
"                        . X o O O + @                           ",
"                    . # $ % & * * = - ; :                       ",
"                    > , < 1 2 3 3 4 5 6 7                       ",
"                8 9 0 q w e r t y u i p - a s                   ",
"                9 d f g h j k l z x c 4 v b n                   ",
"            . > 0 f m M N B V C Z A A S D F G H J               ",
"            # , q g M K L P I U Y A A T R E W Q !               ",
"          . $ < w h N L ~ ^ / ( ) A A A A _ ` ' ] . .           ",
"          X % 1 e j B P ^ [ { ( ) A A A A } |  ...X X           ",
"          o & 2 r k V I / { X.( ) A A A A o.O.+.@.o o           ",
"          O #.$.%.&.*.=.X.-.;.:.>.,.z A A A A <.1.O O           ",
"          O 2.3.4.5.6./ 7.8.9.0.q.w.e.A A A A <.1.O O           ",
"          O r.t.y.u.i.p.a.s.d.f.g.h.j.k.t A A <.1.O O           ",
"          O l.z.x.c.v.b.n.m.M.N.B.V.C.Z.A.A A <.1.O O           ",
"          O S.D.F.F.G.H.J.J.J.K.L.P.I.U.Y.A A <.1.O O           ",
"          O T.R.E.E.W.Q.!.!.!.~.W.^./.Y.(.A A <.1.O O           ",
"          O )._.`.`.`.`.`.`.`.`.`.`.`.`.`.`.`.'.].O O           ",
"          O [.{.}.}.}.}.}.}.}.}.}.}.}.}.}.}.}.|. XO O           ",
"          O .XXXoXoXoXoXoXoXoXOX+X@X@X@X@X#X$X%X&XO O           ",
"          O .XXXoXoXoXoXoXoXoX*X=X-X-X-X-X;X:X%X&XO O           ",
"          O .XXXoXoXoXoXoXoXoX>X,X<X<X<X<X1X2X3X4XO O           ",
"          O .XXXoXoXoXoXoXoXoX>X,X<X<X<X<X5X6X7X8XO O           ",
"          o 9X0XqXwXoXoXoXoXoX>X,X<X<XeXrXtXyX+.@.o o           ",
"          X uXiXpXaXoXoXoXoXoX>X,X<X<XsXdXfXgX ...X X           ",
"          . $ < hXjXoXoXoXoXoX>X,X<X<XkXlXzXxX' ] . .           ",
"            # , cXvXbXaXoXoXoX>X,XsXnXmXMXE W Q !               ",
"            . > 0 NXhXbXoXoXoX>X,XBXVXCXZXF G H J               ",
"                9 d NXvXjXaXwXAXSXDXFX4 v b n                   ",
"                8 9 0 cXhXpXqX$XGXHXJXp - a s                   ",
"                    > , < iX0XXXXXKXLX6 7                       ",
"                    . # $ uX9X.X.XPXIX; :                       ",
"                        . X o O O + @                           "
};
