/* XPM */
static char *New_Project1719494661[] = {
/* columns rows colors chars-per-pixel */
"32 32 4 1 ",
"  c #5B0D0D",
". c #8A592B",
"X c #6E461E",
"o c #E2E034",
/* pixels */
"                                ",
"                                ",
"                                ",
"                                ",
"                                ",
"     ......................     ",
"     .XX..XX.X..XX..X...XX.     ",
"     .XX..XX.X..XX..X...XX.     ",
"     .XX..XX.X..XX..X...XX.     ",
"     .XX..XX.X..XX..X...XX.     ",
"     .XX..XX.X..XX..X...XX.     ",
"     .XX..XX.X..XX..X...XX.     ",
"     .XX..XX.X..XX..X...XX.     ",
"     .XX..XX.X..XX..X...XX.     ",
"     .XX..XX.X..XX..X...XX.     ",
"     .XX..XX.X..XX..X...XX.     ",
"     .XX..XX.X..XX..X...XX.     ",
"     .XX..XX.X..XX..X...XX.     ",
"     .XX..XX.X..XX..X...oo.     ",
"     .XX..XX.X..XX..X...oo.     ",
"     .XX..XX.X..XX..X...XX.     ",
"     .XX..XX.X..XX..X...XX.     ",
"     .XX..XX.X..XX..X...XX.     ",
"     .XX..XX.X..XX..X...XX.     ",
"     .XX..XX.X..XX..X...XX.     ",
"     .XX..XX.X..XX..X...XX.     ",
"     .XX..XX.X..XX..X...XX.     ",
"     .XX..XX.X..XX..X...XX.     ",
"     .XX..XX.X..XX..X...XX.     ",
"     .XX..XX.X..XX..X...XX.     ",
"     .XX..XX.X..XX..X...XX.     ",
"     ......................     "
};
