/* XPM */
static char *New_Project_1_1719495110[] = {
/* columns rows colors chars-per-pixel */
"32 32 50 1 ",
"  c #5B0D0D",
". c #62401F",
"X c #442B13",
"o c #56371B",
"O c #8C8B20",
"+ c #8A592B",
"@ c #69431D",
"# c #593918",
"$ c #5C3B1D",
"% c #766D1C",
"& c #6E461E",
"* c #704823",
"= c #472D13",
"- c #4E3215",
"; c #835529",
": c #543517",
"> c #59391C",
", c #633F1B",
"< c #734A24",
"1 c #805328",
"2 c #774C22",
"3 c #2C1D0E",
"4 c #5F3D1E",
"5 c #010000",
"6 c black",
"7 c #332110",
"8 c #7E5126",
"9 c #654120",
"0 c #070502",
"q c #392512",
"w c #7D5025",
"e c #6C4622",
"r c #0E0904",
"t c #865629",
"y c #402A14",
"u c #150D06",
"i c #845528",
"p c #472E16",
"a c #7A4E24",
"s c #794E26",
"d c #1B1108",
"f c #835428",
"g c #4D3218",
"h c #22160A",
"j c #6F461E",
"k c #825327",
"l c #54361A",
"z c #87572A",
"x c #291A0D",
"c c #5B3B1C",
/* pixels */
"                                ",
"                                ",
"                                ",
"                                ",
"                                ",
"     .XXooXXoXooXXooXoooOOo     ",
"     +@#$oXXoXooXXooXooo%Xo     ",
"     +&&+*=XoXooXXooXoooXXo     ",
"     +&&++@-oXooXXooXoooXXo     ",
"     +&&++&&;:$oXXooXoooXX>     ",
"     +&&++&&+&++,,<*:...--1     ",
"     +&&++&&+&++&&++&+++&&+     ",
"     +&&++&&+&++&&++&+++&&+     ",
"     +&&++&&+&++&&++&+++&&+     ",
"     +&&++&&+&++&&++&+++&&+     ",
"     +&&++&&+&++&&++&+++&&+     ",
"     +&&++&&+&++&&++&+++&&+     ",
"     +&&++&&+&++&&++&+++2+3     ",
"     +&&++&&+&++&&++&+++456     ",
"     +&&++&&+&++&&++&++7666     ",
"     +&&++&&+&++&&++8906666     ",
"     +&&++&&+&++&&++q666666     ",
"     +&&++&&+&++&wer6666666     ",
"     +&&++&&+&++ty666666666     ",
"     +&&++&&+&+<u6666666666     ",
"     +&&++&&+ip666666666666     ",
"     +&&++&asd6666666666666     ",
"     +&&++fg666666666666666     ",
"     +&&+1h6666666666666666     ",
"     +jkl666666666666666666     ",
"     +zx6666666666666666666     ",
"     c666666666666666666666     "
};
